<svg viewBox="0 0 330 200" xmlns="http://www.w3.org/2000/svg"><g><g><g><g><g><line x1="51.41600036621094" y1="178" x2="46.41600036621094" y2="178" style="visibility: inherit;" fill="rgb(0, 0, 0)" stroke="rgb(204, 204, 204)" stroke-width="1px"></line><line x1="51.41600036621094" y1="161.8181818181818" x2="46.41600036621094" y2="161.8181818181818" style="visibility: inherit;" fill="rgb(0, 0, 0)" stroke="rgb(204, 204, 204)" stroke-width="1px"></line><line x1="51.41600036621094" y1="145.63636363636363" x2="46.41600036621094" y2="145.63636363636363" style="visibility: inherit;" fill="rgb(0, 0, 0)" stroke="rgb(204, 204, 204)" stroke-width="1px"></line><line x1="51.41600036621094" y1="129.45454545454547" x2="46.41600036621094" y2="129.45454545454547" style="visibility: inherit;" fill="rgb(0, 0, 0)" stroke="rgb(204, 204, 204)" stroke-width="1px"></line><line x1="51.41600036621094" y1="113.27272727272728" x2="46.41600036621094" y2="113.27272727272728" style="visibility: inherit;" fill="rgb(0, 0, 0)" stroke="rgb(204, 204, 204)" stroke-width="1px"></line><line x1="51.41600036621094" y1="97.09090909090908" x2="46.41600036621094" y2="97.09090909090908" style="visibility: inherit;" fill="rgb(0, 0, 0)" stroke="rgb(204, 204, 204)" stroke-width="1px"></line><line x1="51.41600036621094" y1="80.90909090909089" x2="46.41600036621094" y2="80.90909090909089" style="visibility: inherit;" fill="rgb(0, 0, 0)" stroke="rgb(204, 204, 204)" stroke-width="1px"></line><line x1="51.41600036621094" y1="64.72727272727275" x2="46.41600036621094" y2="64.72727272727275" style="visibility: inherit;" fill="rgb(0, 0, 0)" stroke="rgb(204, 204, 204)" stroke-width="1px"></line><line x1="51.41600036621094" y1="48.54545454545453" x2="46.41600036621094" y2="48.54545454545453" style="visibility: inherit;" fill="rgb(0, 0, 0)" stroke="rgb(204, 204, 204)" stroke-width="1px"></line><line x1="51.41600036621094" y1="32.363636363636346" x2="46.41600036621094" y2="32.363636363636346" style="visibility: inherit;" fill="rgb(0, 0, 0)" stroke="rgb(204, 204, 204)" stroke-width="1px"></line><line x1="51.41600036621094" y1="16.181818181818187" x2="46.41600036621094" y2="16.181818181818187" style="visibility: inherit;" fill="rgb(0, 0, 0)" stroke="rgb(204, 204, 204)" stroke-width="1px"></line><line x1="51.41600036621094" y1="0" x2="46.41600036621094" y2="0" style="visibility: inherit;" fill="rgb(0, 0, 0)" stroke="rgb(204, 204, 204)" stroke-width="1px"></line></g><g transform="translate(41.41600036621094, 0)"><text style="text-anchor: end; visibility: hidden; font-family: &quot;Helvetica Neue&quot;, sans-serif; font-size: 12px; font-weight: 200;" x="0" y="178" dx="0em" dy="0.3em" fill="rgb(50, 49, 63)" stroke="none" stroke-width="1px">0.08</text><text style="text-anchor: end; visibility: inherit; font-family: &quot;Helvetica Neue&quot;, sans-serif; font-size: 12px; font-weight: 200;" x="0" y="161.8181818181818" dx="0em" dy="0.3em" fill="rgb(50, 49, 63)" stroke="none" stroke-width="1px">0.09</text><text style="text-anchor: end; visibility: hidden; font-family: &quot;Helvetica Neue&quot;, sans-serif; font-size: 12px; font-weight: 200;" x="0" y="145.63636363636363" dx="0em" dy="0.3em" fill="rgb(50, 49, 63)" stroke="none" stroke-width="1px">0.1</text><text style="text-anchor: end; visibility: inherit; font-family: &quot;Helvetica Neue&quot;, sans-serif; font-size: 12px; font-weight: 200;" x="0" y="129.45454545454547" dx="0em" dy="0.3em" fill="rgb(50, 49, 63)" stroke="none" stroke-width="1px">0.11</text><text style="text-anchor: end; visibility: hidden; font-family: &quot;Helvetica Neue&quot;, sans-serif; font-size: 12px; font-weight: 200;" x="0" y="113.27272727272728" dx="0em" dy="0.3em" fill="rgb(50, 49, 63)" stroke="none" stroke-width="1px">0.12</text><text style="text-anchor: end; visibility: inherit; font-family: &quot;Helvetica Neue&quot;, sans-serif; font-size: 12px; font-weight: 200;" x="0" y="97.09090909090908" dx="0em" dy="0.3em" fill="rgb(50, 49, 63)" stroke="none" stroke-width="1px">0.13</text><text style="text-anchor: end; visibility: hidden; font-family: &quot;Helvetica Neue&quot;, sans-serif; font-size: 12px; font-weight: 200;" x="0" y="80.90909090909089" dx="0em" dy="0.3em" fill="rgb(50, 49, 63)" stroke="none" stroke-width="1px">0.14</text><text style="text-anchor: end; visibility: inherit; font-family: &quot;Helvetica Neue&quot;, sans-serif; font-size: 12px; font-weight: 200;" x="0" y="64.72727272727275" dx="0em" dy="0.3em" fill="rgb(50, 49, 63)" stroke="none" stroke-width="1px">0.15</text><text style="text-anchor: end; visibility: hidden; font-family: &quot;Helvetica Neue&quot;, sans-serif; font-size: 12px; font-weight: 200;" x="0" y="48.54545454545453" dx="0em" dy="0.3em" fill="rgb(50, 49, 63)" stroke="none" stroke-width="1px">0.16</text><text style="text-anchor: end; visibility: inherit; font-family: &quot;Helvetica Neue&quot;, sans-serif; font-size: 12px; font-weight: 200;" x="0" y="32.363636363636346" dx="0em" dy="0.3em" fill="rgb(50, 49, 63)" stroke="none" stroke-width="1px">0.17</text><text style="text-anchor: end; visibility: hidden; font-family: &quot;Helvetica Neue&quot;, sans-serif; font-size: 12px; font-weight: 200;" x="0" y="16.181818181818187" dx="0em" dy="0.3em" fill="rgb(50, 49, 63)" stroke="none" stroke-width="1px">0.18</text><text style="text-anchor: end; visibility: hidden; font-family: &quot;Helvetica Neue&quot;, sans-serif; font-size: 12px; font-weight: 200;" x="0" y="0" dx="0em" dy="0.3em" fill="rgb(50, 49, 63)" stroke="none" stroke-width="1px">0.19</text></g><line x1="51.41600036621094" y1="0" x2="51.41600036621094" y2="178" fill="rgb(0, 0, 0)" stroke="rgb(204, 204, 204)" stroke-width="1px"></line></g></g><g transform="translate(51, 0)" clip-path="url(#clip_0)"><clipPath id="clip_0"><rect width="278" height="178"></rect></clipPath><g><g><g><line x1="0" y1="0" x2="0" y2="178" fill="rgb(0, 0, 0)" stroke="rgb(60, 60, 60)" stroke-width="1px" opacity="0.25"></line><line x1="30.953777737087673" y1="0" x2="30.953777737087673" y2="178" fill="rgb(0, 0, 0)" stroke="rgb(60, 60, 60)" stroke-width="1px" opacity="0.25"></line><line x1="61.907555474175346" y1="0" x2="61.907555474175346" y2="178" fill="rgb(0, 0, 0)" stroke="rgb(60, 60, 60)" stroke-width="1px" opacity="0.25"></line><line x1="92.86133321126302" y1="0" x2="92.86133321126302" y2="178" fill="rgb(0, 0, 0)" stroke="rgb(60, 60, 60)" stroke-width="1px" opacity="0.25"></line><line x1="123.81511094835069" y1="0" x2="123.81511094835069" y2="178" fill="rgb(0, 0, 0)" stroke="rgb(60, 60, 60)" stroke-width="1px" opacity="0.25"></line><line x1="154.76888868543838" y1="0" x2="154.76888868543838" y2="178" fill="rgb(0, 0, 0)" stroke="rgb(60, 60, 60)" stroke-width="1px" opacity="0.25"></line><line x1="185.72266642252603" y1="0" x2="185.72266642252603" y2="178" fill="rgb(0, 0, 0)" stroke="rgb(60, 60, 60)" stroke-width="1px" opacity="0.25"></line><line x1="216.6764441596137" y1="0" x2="216.6764441596137" y2="178" fill="rgb(0, 0, 0)" stroke="rgb(60, 60, 60)" stroke-width="1px" opacity="0.25"></line><line x1="247.63022189670139" y1="0" x2="247.63022189670139" y2="178" fill="rgb(0, 0, 0)" stroke="rgb(60, 60, 60)" stroke-width="1px" opacity="0.25"></line><line x1="278.58399963378906" y1="0" x2="278.58399963378906" y2="178" fill="rgb(0, 0, 0)" stroke="rgb(60, 60, 60)" stroke-width="1px" opacity="0.25"></line></g><g><line x1="0" y1="178" x2="278.58399963378906" y2="178" fill="rgb(0, 0, 0)" stroke="rgb(60, 60, 60)" stroke-width="1px" opacity="0.25"></line><line x1="0" y1="161.8181818181818" x2="278.58399963378906" y2="161.8181818181818" fill="rgb(0, 0, 0)" stroke="rgb(60, 60, 60)" stroke-width="1px" opacity="0.25"></line><line x1="0" y1="145.63636363636363" x2="278.58399963378906" y2="145.63636363636363" fill="rgb(0, 0, 0)" stroke="rgb(60, 60, 60)" stroke-width="1px" opacity="0.25"></line><line x1="0" y1="129.45454545454547" x2="278.58399963378906" y2="129.45454545454547" fill="rgb(0, 0, 0)" stroke="rgb(60, 60, 60)" stroke-width="1px" opacity="0.25"></line><line x1="0" y1="113.27272727272728" x2="278.58399963378906" y2="113.27272727272728" fill="rgb(0, 0, 0)" stroke="rgb(60, 60, 60)" stroke-width="1px" opacity="0.25"></line><line x1="0" y1="97.09090909090908" x2="278.58399963378906" y2="97.09090909090908" fill="rgb(0, 0, 0)" stroke="rgb(60, 60, 60)" stroke-width="1px" opacity="0.25"></line><line x1="0" y1="80.90909090909089" x2="278.58399963378906" y2="80.90909090909089" fill="rgb(0, 0, 0)" stroke="rgb(60, 60, 60)" stroke-width="1px" opacity="0.25"></line><line x1="0" y1="64.72727272727275" x2="278.58399963378906" y2="64.72727272727275" fill="rgb(0, 0, 0)" stroke="rgb(60, 60, 60)" stroke-width="1px" opacity="0.25"></line><line x1="0" y1="48.54545454545453" x2="278.58399963378906" y2="48.54545454545453" fill="rgb(0, 0, 0)" stroke="rgb(60, 60, 60)" stroke-width="1px" opacity="0.25"></line><line x1="0" y1="32.363636363636346" x2="278.58399963378906" y2="32.363636363636346" fill="rgb(0, 0, 0)" stroke="rgb(60, 60, 60)" stroke-width="1px" opacity="0.25"></line><line x1="0" y1="16.181818181818187" x2="278.58399963378906" y2="16.181818181818187" fill="rgb(0, 0, 0)" stroke="rgb(60, 60, 60)" stroke-width="1px" opacity="0.25"></line><line x1="0" y1="0" x2="278.58399963378906" y2="0" fill="rgb(0, 0, 0)" stroke="rgb(60, 60, 60)" stroke-width="1px" opacity="0.25"></line></g></g></g><g><g><line x1="0" y1="307.4545454545455" x2="278.58399963378906" y2="307.4545454545455" fill="rgb(0, 0, 0)" stroke="rgb(153, 153, 153)" stroke-width="1.5px"></line></g></g><g><g><line x1="0" y1="0" x2="0" y2="178" fill="rgb(0, 0, 0)" stroke="rgb(153, 153, 153)" stroke-width="1.5px"></line></g></g><g><g><g><g><g><path style="fill: none;" stroke="rgb(187, 187, 187)" stroke-width="2px" d="M9.012192388153075,105.57167374004017L9.358874698808458,95.32929019936697L9.405305365414089,93.0073098147294L9.563169631873237,71.56806019948829L9.782941453806558,57.46755269084581L10.126528386688232,55.62281567018155L11.008711052195231,61.093966844579015L11.055141718800863,57.80446494884707L11.194433718617757,52.23792271313252L12.092093272993301,48.625755799316266L12.169477717336019,46.82144711028741L12.46972936138577,41.48496271478314L12.64307051671346,37.591776370160346L12.735931849924723,36.59539702685467L13.240478427039253,33.395808862813L13.27143220477634,35.49154109958482L13.39524731572469,38.57641737392706L13.819314070722791,36.27797247952867L14.104088825903998,34.66019972344381L14.890314780426024,36.57817358554527L14.905791669294569,35.910529576468804L15.202947935570611,35.1720357452177L15.469150424109566,39.802037884723404L15.673445357174343,42.23792472125433L16.571104911549885,38.83590241658277L16.9642178888109,39.89903171861812L17.199466599612766,41.066506083086836L17.30780482169257,40.58083347147192L17.323281710561115,40.32348009311838L17.796874509938558,39.123482990210675L18.001169443003338,37.793249539624185L18.124984553951688,37.96901512006286L18.189987487199573,37.08758500397224L18.22094126493666,37.46686480805573L18.39428242026435,38.878524905271064L18.549051308949785,37.90229080554417L19.165031485917833,37.056238707774696L19.288846596866186,38.25973742853478L19.4002801967197,37.8135124829424L19.77791628511217,37.37980412155076L19.917208284929064,38.73332215059847L19.97911584040324,39.019330302931394L19.997688107045494,37.42182181896382L20.201983040110267,36.78700947753313L20.232936817847357,36.95256168983863L20.34127503992716,37.91296932741585L20.45270863978068,38.70086585873497L20.54556997299194,39.10743280726183L20.954159839121502,39.39075895822424L22.542088637034098,40.99043973277966L22.79281423670451,40.646803185288036L22.919724725426565,40.12081883561311L22.93520161429511,39.65441094040912L23.028062947506378,39.79536754645369L23.1085427696228,39.70460993650556L23.374745258161756,40.14911921261992L23.42117592476739,40.34435720490029L23.548086413489447,42.31136692637949L24.26930943476359,41.59824367272665L24.30335859027439,41.411581551419914L24.39621992348565,43.19978862036197L24.47669974560208,42.590516329175784L24.6964715675354,43.182744623932194L24.78933290074666,44.616348145376264L24.866717345089384,43.831599131640246L25.621989521874323,43.6983536712695L25.699373966217042,44.099650870670615L25.70246934399075,44.71820216039836L25.968671832529704,45.12867496844032L26.15748987672594,44.99379468530603L26.909666675737167,46.3073182121818L27.148010764312744,47.288553731805166L27.445167030588788,48.11620009164139L27.949713607703316,48.51921802518646L27.996144274308946,47.88787462299288L28.200439207373726,47.86920364174341L28.2623467628479,50.134106076797465L28.9680928952535,50.35386369223363L29.064049606238473,50.68690863506754L29.379778139156766,50.62598646175418L29.56550080557929,50.64881831339267L29.707888183169896,51.837126109452925L30.14743182703654,52.1165538000369L30.305296093495684,52.36387936214449L30.4167296933492,52.279569585367994L30.509591026560464,51.41962905371267L30.9800884481642,50.782497009039886L31.404155203162297,51.2149859600532L31.627022402869333,51.263711597331636L31.8622711136712,51.40912264761478L31.924178669145373,51.732654895743536L32.17490426881578,51.595842793795384L32.67945084593031,51.947883343950764L33.29233564512465,51.6031095265745L33.43162764494154,51.84263821147498L33.512107467057966,52.09350968418036L33.589491911400685,51.162978806487786L33.685448622385664,51.674351569108254L33.824740622202555,51.552082027468245L34.029035555267335,52.801151297146916L34.059989333004424,52.12179931592834L34.09403848851522,52.447738955405214L34.233330488332115,51.72217657626368L34.73787706544664,52.45297836897224L35.09694088719686,52.20759894516485L35.39719253124661,53.16191330615905L35.66339501978556,52.77064893734932L35.79030550850762,52.61211490823149L35.979123552703854,52.61189166927575L36.02555421930949,52.5129416117244L36.136987819163004,53.367406946358315L36.731300351715085,53.34384522223644L36.96964444029066,53.17031587908997L37.124413328976104,52.46914433955922L37.1584624844869,52.881406755674604L37.45561875076294,52.670135444921556L37.69086746156481,53.44886662480444L37.957069950103765,52.96610428233198L38.13041110543145,53.23199950160658L38.36875519400703,53.355759676379066L38.46161652721829,53.671731032771035L38.9971168820699,54.370486754921004L39.043547548675534,55.1187136071875L39.05902443754408,55.373297914975794L39.18283954849243,56.40652661217467L39.23236559287177,57.0264024815405L39.340703814951574,56.10362214783915L40.11145288060506,56.37956571718307L40.207409591590036,57.072783079639635L40.34670159140693,56.862489015959284L40.662430124325226,56.90668527033844L40.7243376797994,56.864592805795496L40.83577127965292,57.01388084754517L40.95958639060127,57.98567381373695L41.02149394607544,58.40146045783587L41.30626870125665,58.29689304093L41.38365314559936,58.93750300621305L41.39913003446791,60.082907220467135L41.46413296771579,60.79025729180813L41.68390478964911,60.8725494721064L41.76128923399183,61.04354571909525L42.04296861139933,61.5606300283617L42.26583581110636,61.986367443937425L42.4206046997918,62.14989812314232L42.59394585511949,62.59644907948602L42.971581943511964,63.082123031184366L43.098492432234025,63.56543193985978L43.61542052044339,63.89999651653551L43.63089740931193,63.72380039954177L43.66185118704902,63.85229247415799L44.2933082528856,63.7847860840904L44.41712336383395,64.42959850527751L44.54403385255602,64.96407066489354L44.57498763029311,64.6622162556676L44.65237207463582,65.0149097497036L45.01453127415975,64.94955972081577L45.03000816302829,65.04746706597821L45.17239554061889,64.96139797776614L45.20334931835598,65.18275309574248L45.28073376269871,66.43513857002297L45.48502869576348,66.57049846669018L45.565508517879906,66.6068469419463L45.7048005176968,65.9661571519199L45.924572339630124,66.32541201945318L46.005052161746555,66.37384059243881L46.77580122740004,66.7986384110497L47.02652682707044,58.348417674593236L47.93656789254082,58.14597025975891L48.001570825788704,58.23206637416531L48.19038886998494,57.916475575571624L48.738270735931394,58.489320172517395L48.942565668996174,58.5449292291358L49.447112246110706,59.27769452713392L50.65740495563083,59.918795360544436L50.92360744416979,60.310515462085405L51.01646877738105,60.53416908283489L51.36315108803643,60.10800173369324L52.053420331573484,61.14366427768498L52.164853931427004,61.20926638486959L52.68487739741007,61.802437496760845L52.92012610821194,62.5332990693814L52.966556774817576,63.160545673876186L53.07799037467109,63.66938370695598L53.12442104127672,63.60686971795354L53.53301090740628,62.88280114208537L53.97255455127292,63.32570677350802L54.789734283532034,63.119551403359864L54.882595616743295,63.445418229063804L55.117844327545164,64.1019452784667L55.371665304989286,64.02555759965645L55.38714219385783,64.26163281387679L55.88859339319865,64.35457604937453L56.03098077078925,64.49830476780633L56.077411437394886,63.982896607553386L56.09288832626343,64.85462532003307L56.123842104000516,64.6653805155186L56.139318992869065,64.64463855203957L56.50147819239299,65.13053535646661L56.97507099177043,65.51755042964497L57.56938352432251,66.2955044392685L58.012022545962864,66.99572185192851L58.405135523223876,67.67634102399305L58.482519967566596,68.44779867997963L58.79824850048489,68.43159047815678L59.07992787789239,68.32549585718282L59.29969969982571,68.91787935578807L59.53494841062758,69.39582944795599L59.95901516562567,69.7406336633473L60.00544583223131,70.23787718988943L60.36760503175523,70.40296715005545L60.995966719818114,70.45289497058734L61.280741474999324,70.86846245946695L61.546943963538276,71.2944642527358L61.577897741275365,70.86103578565391L61.608851519012454,71.60373331115571L61.68933134112888,70.93674744033326L62.09792120725844,71.35418020304203L62.30221614032322,71.80536179064094L63.11939587258233,72.06155713865326L63.1813034280565,72.33163861845765L63.33916769451566,73.04876553238502L63.90562182710436,73.22623185455373L64.10682138239542,72.9670114756437L64.1718243156433,72.6597483136249L64.40707302644518,72.06983341652814L64.4844574707879,72.490122659191L64.51541124852498,72.3089062813741L64.65779862611558,72.01473682410999L65.13139142549304,72.53865341156087L65.31711409191556,72.90144384123366L66.0723862687005,72.51364312470827L66.23025053515964,73.26311280073038L66.48097613483006,73.06463683514758L66.8895660009596,73.42179962783014L67.44054324467977,73.95494758876104L67.59840751113892,73.93239665455495L67.64483817774455,74.27481357684141L68.4774947988722,75.07130676543252L68.55487924321493,75.20578615687904L68.71274350967407,75.66715894735769L69.7806488416036,75.61915641622245L69.93851310806274,76.15002989519189L69.9539899969313,76.42793780576075L69.98494377466837,76.69248899188156L70.04994670791626,76.13919737872692L70.0654235967848,77.10139389659973L70.43996430740357,77.37146675451693L70.50496724065145,55.85369137719668L70.55139790725707,42.54482995011787L70.6628315071106,43.64917774493196L70.95998777338663,44.734064835428256L71.00641843999227,45.56395068202295L71.02189532886081,45.82453459795798L71.24166715079413,46.321288234293604L71.55739568371243,46.76474115879722L71.74621372790865,47.1748909928412L71.77716750564575,47.94167321675465L72.5014859046936,48.5135830751108L72.86054972644382,49.50968750703558L72.9565064374288,50.50144489979333L73.04936777064005,51.54421419349342L73.39605008129543,52.111266262482914L73.44248074790107,53.00326546369186L74.30609114676582,54.48301386079828L74.5444352353414,55.18605181237642L74.85706839048596,55.81780353111613L74.90349905709161,56.12830234824678L75.55043301179674,57.047723015641395L75.59686367840237,57.690767859135065L75.83211238920423,58.47398245575938L76.28713292193943,59.37514145270163L76.69572278806899,60.00759779803019L76.80715638792249,60.95629646350869L76.86906394339667,61.57855592919992L76.9804975432502,61.99133433147064L77.15074332080418,62.012097851293575L77.52837940919665,62.778762076312915L77.59338234244453,62.94541268891632L77.8286310532464,63.829909907685945L78.06387976404825,64.91196722145183L78.1876948749966,65.28554174703692L78.31460536371867,66.43175131322978L78.61176162999472,66.70372857965172L78.61485700776842,67.53133947888496L78.80057967419094,68.06934018153808L78.8191519408332,68.96981413362418L79.3825106956482,69.40845322081753L79.55585185097588,70.21960775160233L79.83753122838338,70.69858890038674L80.16873665017022,71.19315794272234L80.45351140535143,71.52365494475833L81.15925753775703,72.20000055222583L81.28616802647909,71.60198856842517L81.33259869308472,72.26151535939991L82.14977842534383,73.04600554623119L82.44693469161987,73.71820271067524L82.47788846935696,74.37237768957584L82.4933653582255,74.92961493806443L83.264114423879,75.47757847054896L83.54888917906018,75.39293747142197L83.67270429000855,75.58986624853299L84.12772482274373,76.12156038070086L84.3660689113193,75.84363418753128L84.63227139985825,76.23764363690222L84.74370499971178,76.7598387532604L85.19872553244696,77.21357503105776L85.93542544258965,77.705869432366L86.35949219758776,77.71856012737567L86.5173564640469,78.68795417408137L86.75260517484877,78.93962303277603L86.95690010791355,78.64027249836406L87.25715175196329,78.99596680482733L87.83908277342054,79.66658397557448L88.16719281743367,80.08711202870342L88.23219575068156,80.65186368808092L88.93794188308715,81.27066881016943L89.23509814936321,82.22193930557714L89.25367041600546,83.18565597528263L89.72416783760919,83.30088648433285L90.07085014826455,83.75146791994794L90.25657281468709,83.91019490503979L90.27514508132934,83.93860020861626L90.36800641454062,84.46725215589227L90.90350676939222,84.39132455067467L91.31209663552178,85.12814903134503L91.34305041325888,85.7526435243694L91.40495796873304,86.32044258098355L91.62472979066636,86.82096105475838L92.22213770099216,87.51932003566684L92.26856836759778,87.81483343492738L93.03931743325127,88.55586554941203L93.0857480998569,88.25905129262556L93.22813547744751,88.59237506704609L93.49433796598646,88.86293258553765L93.50981485485501,89.255281000888L93.74815894343058,89.5137195963682L93.79458961003621,90.02486508343641L94.29604080937705,89.56024172877221L94.32699458711411,89.78150211547096L94.4229512980991,90.38461591001027L94.955356275177,91.2252624743183L95.25560791922675,91.73783753485803L95.60229022988213,91.96859640256461L95.67967467422484,92.00578570910201L95.77253600743612,92.2418466005714L96.16564898469714,92.41757504733575L96.45042373987833,92.63118050767939L96.52780818422106,93.47025581002478L96.74758000615438,94.03141737505875L96.81258293940226,94.0828524812645L97.44094462746514,93.91380246894424L97.8154853380839,93.87898658792489L97.83405760472615,94.1135551049463L98.06930631552802,94.23416719193067L98.1002600932651,95.05572097978805L98.19312142647638,94.88992323226877L98.22407520421346,95.33415803274964L98.47789618165758,95.57822887305943L98.94839360326132,95.92307958623144L99.23007298066881,95.98408852579533L99.38793724712795,95.62511871059665L99.41889102486503,96.01948856789463L99.49937084698146,95.91725270888062L99.6881888911777,96.0687098626862L99.95439137971667,96.22605576399472L100.52084551230537,96.49967374536108L100.86443244518703,97.0126700337135L100.92943537843492,96.7734136867962L101.28849920018513,96.85232399360564L101.44636346664429,97.01566371435545L101.60422773310344,97.36845829602727L101.7001844440884,97.51018268202127L101.79304577729968,97.69978773791956L102.13972808795505,97.85289979547876L103.0033384868198,97.80873948407853L103.5357434638977,98.20317964704641L103.5388388416714,98.32830694346661L103.6007463971456,98.84618902602615L103.89790266342163,98.67016245122561L103.91337955229017,99.01182014179551L103.92885644115871,99.63228620322135L104.04029004101224,100.4055340656023L104.68412861794366,101.29463771693678L104.78008532892862,101.51324025059192L104.82651599553427,101.61888420693992L105.10819537294175,101.6670720848586L105.89442132746379,102.13252428481931L106.02133181618584,102.79724867302319L106.05228559392293,102.66274241613245L106.11419314939711,102.51571563418793L106.19467297151354,102.76639222231397L106.24110363811916,102.82933189240755L106.34944186019897,103.10407598850523L106.46087546005249,103.67867922462301L106.50730612665814,103.95333412141596L106.68064728198581,104.63561941773682L107.07376025924684,104.62576813484873L107.135667814721,105.1220556632757L107.29353208118015,105.16022381292666L107.4513963476393,105.2934499251779L108.4419172352261,106.1565159099354L108.64621216829087,106.19977150030937L108.77002727923923,106.37304034987845L108.974322212304,106.74825253992266L108.98979910117255,106.84195736912831L109.36743518956503,106.97200851765365L109.5717301226298,106.63989298280467L109.93388932215373,107.43639155755172L110.35795607715183,107.6879859887442L110.40438674375747,107.9375578302966L110.78202283214993,108.35784766142943L111.04822532068889,108.56331023352442L111.09775136506822,109.14920557906794L111.47229207568698,109.57395801987954L112.22756425247192,109.78092082876225L112.44733607440524,109.73938250609712L112.55876967425877,110.37320944616448L112.5742465631273,110.7875356934532L112.90235660714043,110.74436608708326L113.15617758458455,111.00207501795116L113.75049011713664,111.13818239028811L114.05074176118639,110.88157576793277L114.50576229392158,110.79928755679L115.27651135957507,110.87963040633646L115.43437562603421,111.38308921804291L115.70057811457316,111.47667662993628L115.84296549216377,111.53349352664534L115.8584423810323,111.19245323001877L116.1401217584398,111.63309276694376L116.47132718022664,111.42420559804614L116.75300655763414,110.93363766825414L117.1925502015008,110.9909047256464L117.31946069022284,111.23155292260464L117.36589135682848,111.368703224249L117.46184806781345,111.0095650128519L117.61661695649889,111.47332739609007L117.65066611200969,111.37537484106905L117.7280505563524,111.59948982305582L117.87043793394301,111.70114784443032L118.35641224441528,112.26909562162491L118.63809162182278,112.51078362187629L118.87643571039837,112.59286352051491L119.78647677586873,112.73020873053751L120.29102335298326,113.28729553360466L120.54174895265368,113.62076100194375L120.69651784133912,113.44152296998821L120.761520774587,113.7591434359807L120.91938504104614,113.83407393301454L121.01224637425742,113.90312914055698L121.10820308524238,114.22524032605818L121.37440557378133,114.66592471003327L121.45179001812406,114.47333487450572L121.51679295137194,114.76168009750967L121.78299543991088,114.6615018123268L121.94085970637003,115.0496197955114L121.98729037297566,115.30841203039554L122.28444663925171,115.4229452362351L122.39588023910522,115.69821336287889L122.53826761669582,115.96052138292399L123.05519570490519,116.1341641223778L123.13258014924791,116.51613320420532L124.01476281475492,116.59154662940095L124.03023970362345,116.57832189096766L124.50073712522719,116.52399816439683L125.12909881329007,116.8072173849327L125.24053241314358,116.95359067733733L125.36434752409193,117.1528200133139L125.37982441296049,117.35930343888765L125.86889410120645,117.23444288054378L126.02675836766562,117.58662184240043L126.21248103408814,117.81575250664339L126.45082512266372,117.85972605027729L127.32991241039699,117.95248291419685L127.67659472105238,117.82455076011837L128.116138364919,118.46966154369125L128.1780459203932,118.37903077236567L128.38234085345798,118.8850170496651L128.63306645312838,118.97086407313367L128.71354627524482,119.27881389325023L129.32643107443917,119.49372726804381L129.561679785241,119.76787541994818L129.71954405170015,120.15420261858495L129.85883605151707,120.0296812103132L129.9702696513706,120.46202222692247L130.26742591764662,120.62039492817031L130.29837969538372,121.12199957271856L130.3324288508945,121.21157091145452L130.3633826286316,120.92534284881631L130.45624396184286,121.08496449610334L130.74101871702405,121.12937410367743L130.7874493836297,121.66715459949157L130.8648338279724,121.45859473690454L130.99174431669448,121.93957367165235L132.01321898201834,122.09289727702311L132.3103752482944,122.35991397054694L132.32585213716294,121.95005635209529L132.3444244038052,122.07016771678036L132.54871933687,122.09207064085189L132.61062689234416,121.87495100175104L132.74991889216105,121.79565338873357L132.75301426993477,122.10763693042838L132.83039871427746,122.40090096438286L132.90778315862022,116.31275973892878L133.12755498055353,116.50831985331239L133.5701940021939,116.6758655834164L133.7559166686164,116.96156721241985L133.8518733796014,117.1325259689265L133.92925782394408,117.41275456948284L134.13355275700886,117.86860661184042L134.26046324573093,118.29127493816893L134.6380993341234,118.31305159546389L134.7464375562032,118.34484207104447L134.76191444507174,118.5266520385702L134.8888249337938,118.95652483847442L135.43980217751397,118.91129543780497L135.56361728846232,118.83732887172701L135.57909417733086,118.86198390272497L135.6286202217102,118.93839669467988L136.09911764331395,119.50574717338084L136.789386886851,119.55776202212954L136.83891293123034,119.89481528163697L137.182499864112,120.01356304575066L137.44870235265097,120.41303952906435L137.48275150816175,120.78146863231686L137.79538466330635,120.5324511670434L137.9532489297655,120.7402428405614L138.29993124042088,120.97652528297917L138.40826946250067,121.47298340477404L138.65899506217107,121.42073750949481L138.67756732881332,121.4534454100573L138.72399799541898,121.62294906234493L139.03663115056355,121.8382388723734L139.06758492830065,122.06044612643363L139.13258786154853,122.1626972327309L139.29045212800767,122.43498920703902L139.4761747944302,122.65329210344179L139.71451888300578,116.4049843942807L139.98072137154472,116.52654623885547L140.07358270475598,116.94072367610588L140.2159700823466,116.74662471886613L140.49764945975411,117.28792178545851L140.8907624370151,117.34385698825642L141.00219603686864,117.46223890913046L141.31482919201324,117.51358680231844L141.61508083606296,117.96156366944615L141.88128332460192,118.36326399599736L142.35178074620566,118.83189736819344L142.44773745719064,118.96881628325667L143.20300963397557,119.17120463541428L143.23396341171264,119.1583612008298L143.37635078930325,119.2047089341426L143.48468901138307,119.25411836285949L143.87780198864408,119.91226640165505L144.19043514378865,120.27710811961964L144.33282252137926,120.78370050043864L144.5680712321811,120.60058708750167L144.6949817209032,121.13161235821374L145.1654791425069,121.18720718864687L145.40072785330878,121.29463357130118L145.46573078655666,121.50132059221788L146.09409247461954,121.74755707339152L146.14052314122517,122.13351423649708L146.4376794075012,122.53763123016688L146.53363611848619,122.80260728378578L146.91127220687866,123.17001579919486L147.01961042895846,123.76801507514384L147.93274687220256,123.93389239665231L148.07203887201945,122.19735122386705L148.16799558300443,122.2350347797123L148.31038296059504,122.61506438711574L148.35681362720067,122.69997999695686L148.68492367121377,122.94630340831617L148.84278793767294,123.16820449384431L149.00065220413208,123.28763987669484L149.17399335945979,123.85025265142096L149.18947024832832,124.32512200505177L149.23590091493395,124.44918746736295L149.58258322558933,124.12370079405918L149.6754445588006,124.06675157501033L150.0066499805874,124.41275811896729L150.14903735817802,124.51246850079127L150.27285246912638,124.67147681235676L151.15503513463338,124.85729342996282L151.2943271344503,124.9895707877499L151.42123762317235,125.79233779193325L151.93816571138169,126.05102182534384L152.34675557751126,126.18202642466156L152.38080473302207,126.38401534705633L152.97511726557414,126.36209360636343L153.32179957622952,126.66754858081512L154.2658897972107,126.95538992722561L154.87877459640504,127.28983884448687L155.41117957348294,127.66297059777028L155.47618250673082,127.84983308161767L155.49165939559938,127.75418401383666L155.52261317333645,128.0742172181047L155.72690810640123,128.1124825694369L155.90024926172893,128.2334872962736L156.2438361946106,128.4184332824154L156.324316016727,128.17381169272832L156.54408783866035,127.91361517224462L156.6369491718716,127.78647880874303L156.77933654946222,127.80368212177595L157.1260188601176,127.80864625289774L157.376744459788,128.0804667788564L157.6924729927063,127.95716825202882L158.25583174752128,128.14951399938403L158.41369601398046,128.2234862686115L158.69847076916164,128.2784959943672L158.80680899124144,128.06802868906414L158.88419343558417,128.25577912228852L159.4970782347785,128.50188036018832L160.01710170076157,129.14802632384888L160.42569156689115,129.93752960849946L160.4566453446282,130.20172810699768L160.47212223349678,130.09911771937033L160.50307601123384,129.78666064239778L160.72284783316718,129.66799057641126L160.80332765528362,129.9382198394718L160.88071209962632,130.0636541133119L161.30477885462443,130.21954831575073L161.5090737876892,130.48604698333025L161.66693805414837,130.4715701187105L161.80932543173898,130.70919311714047L161.87123298721312,131.08362222960682L161.88670987608168,131.58780030807145L162.29529974221126,131.2803653459754L162.4222102309333,131.60003139412572L162.76579716381497,131.40162774930454L162.78127405268353,131.29652799275362L162.9546152080112,131.31657196342638L163.39725422965157,131.55595608381185L163.53654622946846,131.8289786728257L163.7872718291389,131.93476403976862L163.85227476238674,131.90738843386217L163.99156676220363,131.72926347720576L164.10300036205717,132.42849111797312L164.21443396191066,132.4711875398625L164.4651595615811,132.45101182284776L164.90470320544773,132.51612597681313L165.04709058303834,132.23292175250614L165.5949724489848,132.19594151629462L165.72188293770685,132.1617454726329L165.7373598265754,132.33539502770708L165.83022115978665,132.50394660731072L166.0530883594937,132.57951849470734L166.1614265815735,132.7553565726646L166.57001644770304,132.70545914670592L166.5854933365716,132.77567567008455L166.71240382529365,132.76155785395687L166.78978826963638,133.10559083589806L166.94765253609552,133.2925283158259L167.07456302481756,133.656895472291L167.27885795788237,133.7204559753116L167.84221671269736,134.09143049902934L167.888647379303,134.06749262665295L168.01555786802504,134.2101992830647L168.37771706754896,134.64217522577522L168.43962462302312,135.24934898110624L168.5665351117452,135.11862214798973L168.77083004480997,135.5274097084161L168.86369137802123,135.63514271480346L168.89464515575833,135.78226749238587L169.38371484400432,136.11445103089503L169.47657617721555,136.37449135520882L169.557055999332,136.09352611384935L169.5880097770691,136.06969894284668L169.74587404352823,136.45966688691416L169.82325848787096,136.57496310219068L170.02755342093573,136.8437275982121L170.1544639096578,137.59124170945776L170.38971262045965,137.7332998238653L170.75187181998356,137.81293075041222L171.0335511973911,138.22482518331728L171.16046168611314,138.09977084634048L171.42666417465207,138.1393620826455L171.81977715191312,138.5870336145133L172.16336408479478,138.89237982923765L172.18193635143703,138.75834349528031L172.19741324030556,138.7841890984518L172.94959003931683,138.9013939543712L173.06102363917032,138.89800786799722L173.10745430577595,139.256206109583L173.23436479449802,139.05077869288186L173.79772354931302,139.1196487356918L174.24036257095335,139.16566989637784L174.5375188372294,139.50471114230606L174.8191982146369,139.72724841565235L175.26183723627727,139.86060561503467L175.38565234722563,139.68864439040448L175.4166061249627,139.3698116607155L175.9056758132087,139.5369952659836L176.15640141287912,139.90175098265695L176.36069634594386,140.16049748342186L176.45355767915515,140.01205970413366L176.8621475452847,139.95516503400637L176.89619670079549,140.07848506651675L176.91167358966405,140.09273355185536L177.0045349228753,140.13074293679236L177.03548870061238,140.2813111989352L177.28621430028278,140.33309642148254L177.39764790013632,140.1239770652715L177.52455838885837,140.19743514190168L177.74433021079167,140.29181469392842L177.97957892159354,140.41966719696646L178.54603305418226,140.37202568370094L178.71937420950997,140.7988841762946L178.75032798724703,140.487313011389L178.90509687593246,140.3801500781619L179.06296114239163,140.54314386879503L179.26725607545643,140.38150130296214L179.2982098531935,140.2255930296416L179.53655394176909,140.39420159461287L179.81823331917656,140.47094844152468L180.35063829625446,140.21565912053674L180.7437512735155,139.78253811869706L180.82423109563192,139.32773133171887L180.9635230954488,139.6932247603885L181.39068522822063,139.99514802765097L181.7342721611023,140.12068225990714L181.74974904997083,140.23413134000586L182.00357002741495,140.5589103088439L182.41215989354453,140.76545754658912L182.48954433788722,141.06903502229605L182.88265731514826,141.1590043932551L183.00647242609662,141.4947389845449L183.07147535934448,141.6726936120911L183.10242913708157,142.1803731832814L183.1179060259501,142.58441523569104L183.41506229222614,142.79571995371288L183.48006522547402,142.67051722307235L183.68436015853882,143.13726751011075L183.82674753612943,142.83121465862226L183.90413198047216,142.8965811028134L184.01247020255195,143.18193726963173L184.28176806886464,143.25458353133752L184.4551092241923,143.4713670511265L184.97203731240165,143.55259701435074L185.0989478011237,143.0404943534345L185.80469393352934,142.6610917924661L185.8696968667772,142.2568051136755L186.08946868871055,142.17450109291406L186.2597144662645,142.26407832429587L186.30924051064386,142.5321394301863L186.5444892214457,142.84560714773565L186.73330726564194,142.74650034566122L187.03046353191797,143.075523805831L187.15737402064005,143.100479749285L187.2811891315884,143.16229073511064L187.80121259757146,142.96434730646448L188.09836886384753,142.89686698821362L188.1324180193583,142.69804040177888L188.36766673016018,142.8006511431028L188.60291544096205,142.75031859794814L189.6398669951545,142.66877329549257L189.76677748387655,142.77048924313425L190.22179801661173,142.8422819650712L190.50347739401926,142.6181803722807L190.54990806062486,143.07630827850463L190.86563659354317,143.10055921429145L191.80972681452434,143.2859634846801L191.90258814773557,143.22369694958877L191.9335419254727,143.13789772844765L192.23379356952242,143.19748493543446L192.56190361353558,143.45759917671373L192.98597036853366,143.42665076851884L193.64838121210735,143.56975007184502L194.0569710782369,143.76524158641627L194.92058147710165,144.0836515684563L195.1558301879035,144.2084984218577L195.6108507206387,143.69939195732778L195.7222843204922,143.63846030439947L196.0349174756368,143.4429412530592L196.39707667516072,143.13357245742756L196.47446111950345,143.38397812463023L196.66327916369968,143.78549864132268L196.85209720789592,143.76370944660135L196.93257703001234,143.90872067517648L197.5454618292067,143.79988055031413L197.56093871807522,143.4649579292966L197.63832316241792,143.45803742459373L197.85809498435125,144.09901645647622L198.70622849434747,144.36497251923055L198.94457258292306,144.0144722801275L199.3500670712789,144.0326328114777L199.3531624490526,144.41857330389348L199.47697756000096,143.9320188228176L199.65031871532864,142.97391483021872L199.82365987065634,143.45990792973737L200.04343169258965,143.19384672761632L200.10533924806384,143.18917721972022L200.35606484773425,143.5091011057251L200.60988582517837,143.57018734434422L200.87608831371733,143.49771213637788L201.09586013565064,143.83777415480066L201.23824751324125,144.12671595270618L201.28467817984688,143.77491891660324L201.45801933517455,143.6457338977813L201.4734962240431,144.03495172133077L201.53540377951728,144.23914247152456L201.94399364564683,143.95848059397153L202.3216297340393,143.947294012472L202.8076040445116,143.7797981915617L203.0273758664449,143.82434998152195L203.54739933242797,143.86115315253983L203.6247837767707,143.5428791830913L204.31814839808146,143.45196944000782L204.38005595355563,143.77960638407262L204.66483070873684,144.13186589019756L205.38605373001099,144.03899404453279L205.76368981840344,143.97334545321047L205.8101204850091,143.94884748396396L206.42300528420344,144.14960714828624L206.65825399500528,144.35250156469442L207.1628005721198,144.50908550229158L207.3825723940531,144.57205474140554L207.5063875050015,144.60810840141664L207.58686732711791,144.42481358321928L208.0728416375902,144.60112462992768L208.3235672372606,145.09077983805003L208.3576163927714,145.36938394902037L208.40404705937704,145.64091469484103L208.59286510357327,144.94661398635355L208.9859780808343,145.18578148091606L209.25218056937322,145.04766181668109L209.36051879145305,145.18257479004143L209.456475502438,145.30777481846573L209.7722040353563,145.57368893184238L210.0848371905009,145.6643574898425L210.27365523469712,145.8832731298482L210.7905833229065,145.96458341019434L211.1217887446933,145.56470804363803L211.16821941129896,145.68680479835572L211.3570374554952,145.9421986074409L211.40656349987452,145.97393242518694L211.49942483308578,146.2745299882406L212.12778652114866,146.23159812069485L212.14326341001723,145.87346691786794L212.4249427874247,145.9577689743632L212.4589919429355,146.1740928688672L212.58280705388387,146.01623066458237L212.59828394275243,145.69515195239993L212.61376083162094,145.54251786199487L212.69424065373738,145.6702160058038L212.99139692001341,145.6984271374485L213.0223506977505,145.6467692687002L213.27617167519463,145.47788796870844L214.0128715853373,145.27398551908362L214.2171665184021,145.7101493569929L214.29764634051853,145.7103053824209L214.79909753985936,145.8071565418974L215.39650545018515,145.87165949379025L215.8050953163147,146.17263116516517L216.1982082935757,146.39213449603156L216.27559273791843,146.31384692187638L216.35607256003487,146.4293925347494L216.69965949291654,146.62020697553112L217.06181869244045,146.51573355910656L217.23515984776816,146.64345152943534L217.2506367366367,146.3904678478278L217.3311165587531,146.24565239956092L217.47040855857003,146.31486467495031L217.72113415824043,146.30086382948852L217.8944753135681,146.6203696477103L217.97495513568455,146.56350793134405L218.2721114019606,146.58094479925137L218.33401895743478,146.45940830405357L218.68070126809013,146.38935181439132L218.71165504582723,146.6215132648822L218.8385655345493,146.63601315703454L219.57526544469198,146.9048138711917L219.92194775534733,146.9605487055228L220.25315317713418,146.8231356146416L220.77008126534358,146.98946582311478L220.7855581542121,146.9523233904717L221.1322404648675,147.16015485399254L221.1631942426046,147.1483584647975L221.17867113147312,147.09942574425497L221.61821477533977,147.26667056365326L221.98037397486368,144.86842251396342L222.0453769081116,144.85820950552392L222.2651487300449,144.93390515450093L222.35801006325613,145.1761786951196L222.7975537071228,145.33036873467194L222.81303059599134,145.60781032078717L222.92446419584485,145.6860735181512L222.986371751319,145.7595360746316L223.06685157343546,146.2430987637892L223.30210028423733,146.67631976239696L223.9304619723002,146.75132628295964L224.1038031276279,146.6163386981962L224.2740489051819,146.77052202445836L224.41643628277248,146.66887593734134L224.431913171641,147.01115289071032L224.4814392160204,146.9902396450479L224.54334677149456,147.1212314894529L224.60525432696872,147.03129572569682L224.85597992663912,147.12788857865982L224.93645974875554,147.37465357564213L224.99836730422973,147.75065907134956L225.02932108196683,147.57471887103026L225.39148028149074,147.4166632895402L225.67315965889824,147.53969371205807L225.76911636988322,147.79107992419276L225.78459325875178,147.84141175064138L226.01984196955362,147.99544639923454L226.06627263615925,147.86562115734887L226.52438854666815,147.5342127574983L226.5398654355367,147.70161123332662L226.55534232440525,147.69651767638706L226.91440614615544,147.75619116238278L227.11870107922024,148.04105664408473L227.85849636713664,147.97831625998785L228.03183752246434,147.84127108413244L228.95735547680326,145.28273403134875L229.5702402759976,145.02791702897568L229.61976632037693,144.6623414654398L229.91692258665296,144.57370439675714L230.26360489730834,144.9161694548169L230.29455867504544,145.2279591680257L230.54528427471584,145.62582293788114L231.08078462956746,145.65390889028458L231.25412578489514,145.9177934220117L231.5203282734341,146.000469012956L231.59771271777683,146.43634991377866L231.62866649551393,146.78671639144233L231.77105387310453,147.04878249092587L232.03725636164347,146.63499527848967L232.2601235613505,146.72301554142066L232.36846178343032,146.5228337980762L232.61918738310072,146.42264505454057L232.69966720521714,146.78660312356203L232.80800542729696,146.5382790520688L233.48589315973916,146.97036722642494L233.5632776040819,147.10071541527847L233.79852631488376,147.14694043731328L233.87900613700018,147.16501639910922L234.03377502568563,147.66163642220408L234.14520862553914,148.06411298154399L234.28759600312975,148.34107066540335L234.39593422520957,148.44095985406045L234.53832160280015,148.5169364651652L234.5537984916687,148.2866919639372L234.56927538053725,148.60357221289613L234.7580934247335,148.3822951695553L235.03977280214096,148.52698419806342L235.32454755732218,146.76226096637635L235.49479333487616,146.8400234688257L236.17268106731836,146.8886988965422L236.3460222226461,146.80839506960115L236.51626800020009,146.9367066486083L236.97438391070898,146.70033182187137L237.4448813323127,147.00272055147275L237.89990186504787,147.4573548189555L238.4354022198995,147.50200413326556L238.7820845305549,147.3577978842406L238.92137653037176,147.50030760185655L239.0018563524882,147.3382038790221L239.22162817442154,147.78577099670937L239.4723537740919,147.86552722004905L239.67664870715672,147.52458604761486L239.72307937376235,147.4715290777058L240.00475875116985,147.54901086013604L240.27405661748253,147.6479227816159L240.39787172843083,147.85259161264423L241.437918660397,148.05793464383046L241.92389297086928,148.0480767520949L242.04770808181763,147.92110998610576L242.12818790393405,141.89813988474168L242.47487021458943,141.9365778515201L242.49034710345796,141.8615103331697L242.5986853255378,142.3732376507636L243.053705858273,142.42080159522936L243.1341856803894,142.60558331194324L243.446818835534,142.91732823020368L243.62015999086168,143.08094180014194L243.8708855905321,143.56985918630457L243.92041163491143,143.64140348241494L244.78402203377615,143.69311184298505L244.9728400779724,144.30837861030994L245.115227455563,144.51675740651538L245.1771350110372,144.448713186553L245.26999634424845,144.75657103863705L245.5392942105611,145.17314502129457L245.86740425457424,145.34503329368212L246.05622229877048,145.38204030582438L246.91983269763523,145.64857512656982L247.1550814084371,145.8516501291062L247.23556123055351,146.10540382091412L247.2974687860277,146.45986263252018L247.32842256376478,146.49084260979942L247.34389945263334,146.76428447626918L247.48628683022395,146.8373681383668L247.77106158540516,147.00941273442078L247.9258304740906,147.4924371582538L248.0682178516812,147.65001972835847L248.11464851828683,147.85042183721086L248.16107918489243,148.08210052000203L248.65014887313842,148.49556605911448L248.69657953974408,148.81458672966264" fill="none"></path></g></g></g></g><g opacity="0.2"><g><g><g><path style="fill: none;" stroke="rgb(187, 187, 187)" stroke-width="2px" d="M9.012192388153075,105.57167374004017L9.358874698808458,85.2405424118042L9.405305365414089,88.46731571717696L9.563169631873237,9.160620851950199L9.782941453806558,3.1491098729046882L10.126528386688232,46.80598791079089L11.008711052195231,92.23990609429099L11.055141718800863,36.118862639773994L11.194433718617757,10.608642003752976L12.092093272993301,18.459452347321957L12.169477717336019,30.201897902922184L12.46972936138577,-12.188697067174047L12.64307051671346,-4.812812198292136L12.735931849924723,24.92418729175222L13.240478427039253,-6.672366304831058L13.27143220477634,63.406846805052325L13.39524731572469,82.08943503553218L13.819314070722791,2.080117637460887L14.104088825903998,9.357405315745979L14.890314780426024,68.01549988443202L14.905791669294569,24.47376040978864L15.202947935570611,21.983946247534305L15.469150424109566,125.80534117872065L15.673445357174343,89.2056975147941L16.571104911549885,-29.127544912424923L16.9642178888109,61.8661602085287L17.199466599612766,65.9778004993092L17.30780482169257,29.894725095142036L17.323281710561115,34.49245508150622L17.796874509938558,11.160197919065297L18.001169443003338,5.949786099520594L18.124984553951688,42.28655214743182L18.189987487199573,14.892544052817613L18.22094126493666,47.24773418903351L18.39428242026435,76.12684890356932L18.549051308949785,11.567993391643881L19.165031485917833,13.742629300464301L19.288846596866186,72.11105694554068L19.4002801967197,25.011089780113906L19.77791628511217,24.695935639468104L19.917208284929064,79.05662499774587L19.97911584040324,47.69384488192472L19.997688107045494,-11.876749927347333L20.201983040110267,16.865476489067078L20.232936817847357,42.233021757819444L20.34127503992716,69.03267373821951L20.45270863978068,64.62389155951415L20.54556997299194,52.683938156474724L20.954159839121502,48.989039182662964L22.542088637034098,95.94584872505881L22.79281423670451,28.68011573227969L22.919724725426565,21.56076681613922L22.93520161429511,22.98404824733734L23.028062947506378,44.89671323516151L23.1085427696228,36.37988357110456L23.374745258161756,56.626427238637746L23.42117592476739,47.66529534079811L23.548086413489447,116.90046441555023L24.26930943476359,14.259776267138392L24.30335859027439,34.17913351275703L24.39621992348565,113.20810934088446L24.47669974560208,18.4951633865183L24.6964715675354,66.83607107942754L24.78933290074666,102.42705270377073L24.866717345089384,11.887945977124303L25.621989521874323,38.2246324257417L25.699373966217042,60.73293150555004L25.70246934399075,70.58110053972764L25.968671832529704,62.438260219313875L26.15748987672594,39.25837176496333L26.909666675737167,102.61739905314012L27.148010764312744,89.68915891647339L27.445167030588788,84.15877039866014L27.949713607703316,66.20366498557006L27.996144274308946,19.97817219387403L28.200439207373726,47.03780825571582L28.2623467628479,151.70550176772204L28.9680928952535,60.27770617875187L29.064049606238473,65.8290487094359L29.379778139156766,47.837653550234705L29.56550080557929,51.70061865719883L29.707888183169896,106.92853649637915L30.14743182703654,65.15208218314432L30.305296093495684,63.97236402468248L30.4167296933492,48.298714171756416L30.509591026560464,10.577825860543697L30.9800884481642,20.349026875062435L31.404155203162297,71.98952849344774L31.627022402869333,53.61712716926229L31.8622711136712,58.47025980732657L31.924178669145373,67.5263478647579L32.17490426881578,44.882583141326904L32.67945084593031,69.3098743503744L33.29233564512465,34.51495231281629L33.43162764494154,63.7723484472795L33.512107467057966,64.64783555811101L33.589491911400685,4.37847626209259L33.685448622385664,77.50279693170027L33.824740622202555,45.348683335564345L34.029035555267335,116.45297929373655L34.059989333004424,17.352554808963447L34.09403848851522,69.20016116445714L34.233330488332115,14.27491909807378L34.73787706544664,90.3247237855738L35.09694088719686,39.44054387916219L35.39719253124661,103.00995524363084L35.66339501978556,32.2543543143706L35.79030550850762,44.267779382792384L35.979123552703854,52.60009799220346L36.02555421930949,47.266373374245376L36.136987819163004,98.83526001193307L36.731300351715085,52.08567577058619L36.96964444029066,43.87211264263502L37.124413328976104,14.771256728605778L37.1584624844869,75.11994709751822L37.45561875076294,41.236440225081L37.69086746156481,95.72755565426566L37.957069950103765,26.67371474612844L38.13041110543145,67.75797530737792L38.36875519400703,60.137321526354015L38.46161652721829,71.03721803968602L38.9971168820699,92.88567067276348L39.043547548675534,96.47910303419287L39.05902443754408,69.48584947802804L39.18283954849243,113.84081684459339L39.23236559287177,91.57728667692705L39.340703814951574,4.531905932859928L40.11145288060506,71.84178944067521L40.207409591590036,96.01669209653681L40.34670159140693,45.01855515349996L40.662430124325226,59.402050278403536L40.7243376797994,54.4821975556287L40.83577127965292,65.48375358364798L40.95958639060127,113.25064429911701L41.02149394607544,82.10173255747014L41.30626870125665,52.32284915447235L41.38365314559936,95.61822827295823L41.39913003446791,125.81212892857465L41.46413296771579,101.46953388777646L41.68390478964911,65.61519239165567L41.76128923399183,70.91896892677654L42.04296861139933,91.48481413451108L42.26583581110636,86.6739994395863L42.4206046997918,71.65153954245828L42.59394585511949,88.59311213276602L42.971581943511964,91.41066731106152L43.098492432234025,91.80922758579254L43.61542052044339,83.48768739266829L43.63089740931193,53.389261321587995L43.66185118704902,71.40233387730338L44.2933082528856,59.811196067116484L44.41712336383395,102.45063501054591L44.54403385255602,96.53268164938147L44.57498763029311,46.80328727852216L44.65237207463582,85.9160862835971L45.01453127415975,61.07053465192968L45.03000816302829,70.86828384616159L45.17239554061889,59.836369817907155L45.20334931835598,78.38378175822173L45.28073376269871,141.23733266917142L45.48502869576348,74.6673018390482L45.565508517879906,68.7842879078605L45.7048005176968,27.53051444617185L45.924572339630124,87.90806782245636L46.005052161746555,69.28730478069998L46.77580122740004,92.38957417011261L47.02652682707044,-451.4025779637424L47.93656789254082,45.91731110486117L48.001570825788704,63.43942318179391L48.19038886998494,38.80403861132535L48.738270735931394,93.22513050382788L48.942565668996174,61.92111325263977L49.447112246110706,103.82041016491978L50.65740495563083,98.93641315806995L50.92360744416979,84.1789769150994L51.01646877738105,74.17781224034049L51.36315108803643,34.080512209372074L52.053420331573484,124.46645450592041L52.164853931427004,65.22478223930706L52.68487739741007,98.15019158883528L52.92012610821194,107.36643678491767L52.966556774817576,101.67832652005283L53.07799037467109,94.94847147031264L53.12442104127672,59.7601010691036L53.53301090740628,18.28270561044866L53.97255455127292,90.63418730822477L54.789734283532034,50.39611682024871L54.882595616743295,83.57647067850286L55.117844327545164,104.69847734407945L55.371665304989286,59.29771424423565L55.38714219385783,78.88634048808706L55.88859339319865,70.11753218824214L56.03098077078925,73.41811473803087L56.077411437394886,31.96876245195216L56.09288832626343,119.04775642264974L56.123842104000516,52.890584750608966L56.139318992869065,63.353002949194476L56.50147819239299,95.41285965659402L56.97507099177043,89.65672721646048L57.56938352432251,114.85703824325043L58.012022545962864,110.73885133049704L58.405135523223876,110.22778078642759L58.482519967566596,116.71477183428678L58.79824850048489,67.4167552427812L59.07992787789239,61.67779110778463L59.29969969982571,106.0623328089714L59.53494841062758,99.38616488196634L59.95901516562567,91.39144941893491L60.00544583223131,101.48204842480747L60.36760503175523,80.78336586735465L60.995966719818114,73.59430688077754L61.280741474999324,97.03270853649487L61.546943963538276,98.132950945334L61.577897741275365,43.53733069246465L61.608851519012454,118.45327974449503L61.68933134112888,28.83723465962842L62.09792120725844,97.71809042583813L62.30221614032322,100.31773833795027L63.11939587258233,88.26129605553366L63.1813034280565,89.41928859190507L63.33916769451566,118.44610619003123L63.90562182710436,84.46693183075298L64.10682138239542,56.53897015614943L64.1718243156433,53.176441853696645L64.40707302644518,34.64383516528389L64.4844574707879,99.16857108202848L64.51541124852498,60.79998916929418L64.65779862611558,53.322734139182344L65.13139142549304,105.84586025368084L65.31711409191556,95.97668898105621L66.0723862687005,47.835628076033146L66.23025053515964,120.97905813022095L66.48097613483006,60.42245524579829L66.8895660009596,96.18229872530158L67.44054324467977,107.94577063213696L67.59840751113892,72.49401624636216L67.64483817774455,96.1250790791078L68.4774947988722,125.9191897077994L68.55487924321493,83.79459495977922L68.71274350967407,105.14615536819805L69.7806488416036,72.5508018623699L69.93851310806274,110.09772846373646L69.9539899969313,94.20644864169034L69.98494377466837,93.62325674837287L70.04994670791626,40.715748678554206L70.0654235967848,138.72792686657473L70.43996430740357,94.67558704723011L70.50496724065145,-1323.3488705374978L70.55139790725707,-810.8130405599421L70.6628315071106,114.48506231741473L70.95998777338663,114.34648612412539L71.00641843999227,98.83275228196925L71.02189532886081,62.55670223452829L71.24166715079413,78.2288329818032L71.55739568371243,75.25820982456207L71.74621372790865,73.53720779852434L71.77716750564575,97.24248979308389L72.5014859046936,85.29670109532096L72.86054972644382,113.59560184587131L72.9565064374288,114.32747319069776L73.04936777064005,118.67368268424815L73.39605008129543,88.62687003612518L73.44248074790107,110.46101172945716L74.30609114676582,149.82816447994927L74.5444352353414,100.49815021861683L74.85706839048596,96.54688408158042L74.90349905709161,76.15175741369075L75.55043301179674,116.35559979893944L75.59686367840237,99.1820260177959L75.83211238920423,109.02286476438697L76.28713292193943,117.55141324346715L76.69572278806899,100.84771330790086L76.80715638792249,122.23293516852638L76.86906394339667,101.78046829050238L76.9804975432502,88.66600509123369L77.15074332080418,63.35420858860016L77.52837940919665,112.34617361697285L77.59338234244453,73.72246634960175L77.8286310532464,121.04230597344312L78.06387976404825,134.91920347647235L78.1876948749966,89.46059379794382L78.31460536371867,140.62257713621312L78.61176162999472,84.31186249039389L78.61485700776842,121.12334905429321L78.80057967419094,102.91497497125106L78.8191519408332,127.3045176105066L79.3825106956482,97.83028722893108L79.55585185097588,122.78936186703768L79.83753122838338,101.7468309510838L80.16873665017022,103.25809994610874L80.45351140535143,92.95526017925955L81.15925753775703,116.06703000718898L81.28616802647909,32.8083456212824L81.33259869308472,115.0535574663769L82.14977842534383,123.95526339791039L82.44693469161987,117.34802187572825L82.47788846935696,116.83990514820272L82.4933653582255,111.11042939532886L83.264114423879,111.06232438304208L83.54888917906018,69.89542929692702L83.67270429000855,88.38267983089794L84.12772482274373,110.66689877076583L84.3660689113193,57.78326236117971L84.63227139985825,101.84545225446875L84.74370499971178,110.70408069003712L85.19872553244696,106.71230506896973L85.93542544258965,109.71620387380774L86.35949219758776,78.54386655850844L86.5173564640469,141.73920418457553L86.75260517484877,95.31100723960184L86.95690010791355,59.164370525967L87.25715175196329,102.14085802164945L87.83908277342054,123.30939031189138L88.16719281743367,107.45818594369022L88.23219575068156,117.41498308831996L88.93794188308715,121.55775298855522L89.23509814936321,144.16208124702626L89.25367041600546,145.94420919093218L89.72416783760919,90.80579802122983L90.07085014826455,113.10126557675275L90.25657281468709,94.25055093115027L90.27514508132934,85.78930124369536L90.36800641454062,118.91477439620277L90.90350676939222,79.4432253295725L91.31209663552178,133.15150703625247L91.34305041325888,126.45936438712206L91.40495796873304,123.33567325093529L91.62472979066636,119.45369521054354L92.22213770099216,133.05574309825897L92.26856836759778,107.08580010045658L93.03931743325127,136.88497441465205L93.0857480998569,68.89923356879842L93.22813547744751,110.33574579520659L93.49433796598646,106.51370008967139L93.50981485485501,114.8540241447362L93.74815894343058,106.37716142697768L93.79458961003621,123.38093295422468L94.29604080937705,59.23723937164654L94.32699458711411,104.22309372641824L94.4229512980991,129.7532435818152L94.955356275177,146.10392024300316L95.25560791922675,125.20246119390833L95.60229022988213,107.03552493723957L95.67967467422484,94.43419392542405L95.77253600743612,107.6575866449963L96.16564898469714,103.89431586048819L96.45042373987833,106.58279528401114L96.52780818422106,148.27878522331065L96.74758000615438,130.68949491869319L96.81258293940226,97.44313230297782L97.44094462746514,82.86883268573068L97.8154853380839,91.60410009730946L97.83405760472615,109.44152304801075L98.06930631552802,102.11619063940915L98.1002600932651,148.7483214898543L98.19312142647638,84.05344574017958L98.22407520421346,124.37122104926544L98.47789618165758,111.53283721750434L98.94839360326132,118.46708431569013L99.23007298066881,99.97270845283161L99.38793724712795,72.15496633269571L99.41889102486503,121.80584946545687L99.49937084698146,89.23200456662612L99.6881888911777,105.97318783131513L99.95439137971667,106.5162681016055L100.52084551230537,114.39502516659823L100.86443244518703,130.56603744355115L100.92943537843492,81.12352496927434L101.28849920018513,102.01419354568829L101.44636346664429,107.7010499455712L101.60422773310344,120.44895053993571L101.7001844440884,106.78258178992705L101.79304577729968,110.10549278150906L102.13972808795505,107.87144296277653L103.0033384868198,94.91905386881395L103.5357434638977,124.01523190194911L103.5388388416714,106.51702765443109L103.6007463971456,132.7397450100292L103.89790266342163,87.14926249330694L103.91337955229017,121.37435112216255L103.92885644115871,140.24565808881414L104.04029004101224,151.02186805551702L104.68412861794366,159.49758541584015L104.78008532892862,115.82417806170204L104.82651599553427,108.53524390675805L105.10819537294175,104.82200715758584L105.89442132746379,132.60776366428897L106.02133181618584,146.32164666327563L106.05228559392293,93.85524588281459L106.11419314939711,92.88796138763428L106.19467297151354,119.18213699080727L106.24110363811916,106.95115429162979L106.34944186019897,121.09737958149478L106.46087546005249,141.31161211295563L106.50730612665814,121.94223139502785L106.68064728198581,149.32456890019503L107.07376025924684,103.98049496520649L107.135667814721,137.63083117658442L107.29353208118015,107.66048017956994L107.4513963476393,114.02092731540853L108.4419172352261,162.69694248112765L108.64621216829087,109.03359495509754L108.77002727923923,117.72488064115697L108.974322212304,131.33141350746155L108.98979910117255,112.98152147098021L109.36743518956503,115.49327827041799L109.5717301226298,84.87815131924368L109.93388932215373,159.62834906578064L110.35795607715183,124.17467771335083L110.40438674375747,124.29222755540502L110.78202283214993,135.90067834745753L111.04822532068889,122.02828993580559L111.09775136506822,147.54698621684855L111.47229207568698,137.41175444017756L112.22756425247192,123.34542687372729L112.44733607440524,107.01684958284552L112.55876967425877,151.91710353981364L112.5742465631273,137.94511725685814L112.90235660714043,107.91467719186436L113.15617758458455,127.89488305828789L113.75049011713664,120.06025239554319L114.05074176118639,94.06013224341653L114.50576229392158,105.40487352826379L115.27651135957507,116.14665043354034L115.43437562603421,144.38906697793442L115.70057811457316,117.6122739206661L115.84296549216377,115.25850410894915L115.8584423810323,88.83274502103978L116.1401217584398,140.52353385903618L116.47132718022664,97.72824190963398L116.75300655763414,78.76816371354191L117.1925502015008,114.7458662336523L117.31946069022284,127.01104086637497L117.36589135682848,120.36195160042155L117.46184806781345,87.45956996354191L117.61661695649889,141.8845560713248L117.65066611200969,104.9519991983067L117.7280505563524,126.29644633423197L117.87043793394301,118.367787854238L118.35641224441528,149.51533722335643L118.63809162182278,128.36109176007184L118.87643571039837,117.97590682181445L119.78647677586873,121.73788757215846L120.29102335298326,149.82408941875804L120.54174895265368,135.49165312268516L120.69651784133912,101.6856809204275L120.761520774587,134.5915709679777L120.91938504104614,118.74878196282822L121.01224637425742,118.43255480311134L121.10820308524238,135.353318057277L121.37440557378133,143.57200515270233L121.45179001812406,101.84046090732922L121.51679295137194,133.6759119521488L121.78299543991088,108.09012183817951L121.94085970637003,140.50934348323128L121.98729037297566,132.28490548784083L122.28444663925171,122.93631725419652L122.39588023910522,133.75606285983866L122.53826761669582,133.16843421350825L123.05519570490519,127.52563187750903L123.13258014924791,141.57477908242834L124.01476281475492,121.53902940858495L124.03023970362345,115.71070328083906L124.50073712522719,112.96000080758876L125.12909881329007,135.38853478431702L125.24053241314358,126.55691267143595L125.36434752409193,130.22411810809916L125.37982441296049,130.9067149704153L125.86889410120645,109.04221527684818L126.02675836766562,140.69373397393662L126.21248103408814,132.84962698546323L126.45082512266372,120.7449832396074L127.32991241039699,124.03865747560155L127.67659472105238,109.43027443235572L128.116138364919,160.7991454926404L128.1780459203932,112.43214776299216L128.38234085345798,152.08649587631226L128.63306645312838,124.60398179292679L128.71354627524482,139.48611731962725L129.32643107443917,133.59624330022118L129.561679785241,137.75754387812182L129.71954405170015,145.5053564472632L129.85883605151707,111.85838396982713L129.9702696513706,148.8332346731966L130.26742591764662,131.0132814374837L130.29837969538372,154.03911328857595L130.3324288508945,127.08962444283745L130.3633826286316,102.1416537436572L130.45624396184286,131.56021975387227L130.74101871702405,124.04380555586383L130.7874493836297,156.95994353836232L130.8648338279724,107.7713628357107L130.99174431669448,153.50523204695094L132.01321898201834,132.1552992517298L132.3103752482944,139.883978323503L132.32585213716294,95.05124017325315L132.3444244038052,129.95310242609546L132.54871933687,123.52957623655146L132.61062689234416,107.62510671940717L132.74991889216105,116.59120585159823L132.75301426993477,142.58385103940964L132.83039871427746,141.64866066520864L132.90778315862022,-283.27249769731L133.12755498055353,129.34368787570435L133.5701940021939,127.67262343385002L133.7559166686164,135.7135510553013L133.8518733796014,128.35346006263387L133.92925782394408,135.80578246983615L134.13355275700886,147.78903038393366L134.26046324573093,146.03383642435074L134.6380993341234,119.7424096790227L134.7464375562032,120.43149288134143L134.76191444507174,130.46030286767265L134.8888249337938,147.17271957614204L135.43980217751397,115.9424874565818L135.56361728846232,113.98221423409201L135.57909417733086,120.48033333366567L135.6286202217102,123.95414215326309L136.09911764331395,156.74693116816607L136.789386886851,122.97206446257505L136.83891293123034,142.01943095163867L137.182499864112,127.808366374536L137.44870235265097,146.6354987133633L137.48275150816175,144.9660498283126L137.79538466330635,104.18624938618053L137.9532489297655,134.38034294410187L138.29993124042088,136.48693256486547L138.40826946250067,154.06240624189377L138.65899506217107,117.99109787832606L138.67756732881332,123.60054017197001L138.72399799541898,132.7499929449775L139.03663115056355,135.97097918120298L139.06758492830065,136.6473549441858L139.13258786154853,128.87505583871496L139.29045212800767,140.30990661274302L139.4761747944302,136.9841020865874L139.71451888300578,-293.7761246507818L139.98072137154472,124.50672286207026L140.07358270475598,144.1303729306568L140.2159700823466,104.00448718937962L140.49764945975411,152.8229486508803L140.8907624370151,121.01590247045863L141.00219603686864,125.23383193124425L141.31482919201324,120.88451188802719L141.61508083606296,147.37080613049594L141.88128332460192,144.73460323160344L142.35178074620566,149.59746537967163L142.44773745719064,127.95751602541316L143.20300963397557,132.45801119370896L143.23396341171264,118.315185806968L143.37635078930325,122.2474631233649L143.48468901138307,122.49788648431951L143.87780198864408,163.1203630404039L144.19043514378865,144.22942826422778L144.33282252137926,154.04224795103073L144.5680712321811,108.57887599684976L144.6949817209032,155.9944554458965L145.1654791425069,124.83712834119797L145.40072785330878,128.34743186560544L145.46573078655666,135.07086085731333L146.09409247461954,137.9136741811579L146.14052314122517,147.47276705503464L146.4376794075012,149.06921447407115L146.53363611848619,140.19919274611908L146.91127220687866,147.29171618548307L147.01961042895846,163.02895146066493L147.93274687220256,134.8244040500034L148.07203887201945,8.186126633123905L148.16799558300443,124.7091256054965L148.31038296059504,147.565745966001L148.35681362720067,128.2750935012644L148.68492367121377,139.1186504851688L148.84278793767294,137.73714445937765L149.00065220413208,131.12920366634023L149.17399335945979,160.78884933211586L149.18947024832832,155.50296448577535L149.23590091493395,132.59480304067785L149.58258322558933,102.75356396761808L149.6754445588006,120.32768732851201L150.0066499805874,147.13025695627385L150.14903735817802,131.0590957348997L150.27285246912638,135.11141856692055L151.15503513463338,137.05740496245298L151.2943271344503,133.67448929765007L151.42123762317235,178.4996319196441L151.93816571138169,143.03548356077889L152.34675557751126,134.78343642299825L152.38080473302207,139.64609361236745L152.97511726557414,124.9227649081837L153.32179957622952,146.72302813421595L154.2658897972107,145.85443728078496L154.87877459640504,149.24908381700516L155.41117957348294,152.16210152344271L155.47618250673082,140.11889716170052L155.49165939559938,121.47402133183047L155.52261317333645,149.08711821924555L155.72690810640123,130.62493292851883L155.90024926172893,136.17850589210337L156.2438361946106,140.5617767409845L156.324316016727,112.11220723390579L156.54408783866035,110.8293466242877L156.6369491718716,119.43880556388336L156.77933654946222,128.93323999643326L157.1260188601176,128.134588284926L157.376744459788,145.92807773568413L157.6924729927063,119.86143040115184L158.25583174752128,140.77888828516006L158.41369601398046,133.08049487525767L158.69847076916164,131.89043233069506L158.80680899124144,114.24873288111255L158.88419343558417,140.5835023630749L159.4970782347785,144.6609507203102L160.01710170076157,171.57419804551384L160.42569156689115,181.77666833183983L160.4566453446282,147.54914431138474L160.47212223349678,123.3616547801278L160.50307601123384,109.27050309831446L160.72284783316718,121.8760176788677L160.80332765528362,147.68171642043373L160.88071209962632,138.29979225722226L161.30477885462443,140.45572869886053L161.5090737876892,147.98465743389997L161.66693805414837,129.5210012630983L161.80932543173898,146.31183275851336L161.87123298721312,155.6691618778489L161.88670987608168,164.69287851723757L162.29529974221126,111.09370717677204L162.4222102309333,152.58982621539724L162.76579716381497,118.37410540472376L162.78127405268353,124.39549057050186L162.9546152080112,132.6326962871985L163.39725422965157,147.27437909082934L163.53654622946846,149.7561878074299L163.7872718291389,138.88085016879168L163.85227476238674,130.10984760522842L163.99156676220363,120.03318579088557L164.10300036205717,178.34136763485995L164.21443396191066,135.27473448081452L164.4651595615811,131.12622573700818L164.90470320544773,136.7916820374402L165.04709058303834,113.63701555945657L165.5949724489848,129.76772331107748L165.72188293770685,129.91634248061615L165.7373598265754,143.73769617622548L165.83022115978665,143.571510840546L166.0530883594937,137.5417826500806L166.1614265815735,144.30139288035306L166.57001644770304,129.42904714562675L166.5854933365716,137.38630339232358L166.71240382529365,131.83453888784754L166.78978826963638,155.6958667906848L166.94765253609552,145.56743482026187L167.07456302481756,157.582415163517L167.27885795788237,137.89404637163335L167.84221671269736,158.45084928382528L167.888647379303,132.49565125595439L168.01555786802504,143.58080632036382L168.37771706754896,163.00721378218043L168.43962462302312,175.11851265755567L168.5665351117452,126.53463245521891L168.77083004480997,162.3698766231537L168.86369137802123,142.709285763177L168.89464515575833,145.44302488998935L169.38371484400432,157.92686634172094L169.47657617721555,153.44972440871325L169.557055999332,117.64427159049293L169.5880097770691,134.50511456619608L169.74587404352823,162.06648952310735L169.82325848787096,144.14576894586736L170.02755342093573,154.49187911098653L170.1544639096578,186.6760372411121L170.38971262045965,147.0614149462093L170.75187181998356,143.0418252240528L171.0335511973911,165.27152514999563L171.16046168611314,129.88817874409935L171.42666417465207,140.73909012837845L171.81977715191312,167.98305639895526L172.16336408479478,158.94272604855624L172.18193635143703,129.95693635940552L172.19741324030556,140.4813244234432L172.94959003931683,146.59758135405454L173.06102363917032,138.67566239833832L173.10745430577595,162.7771054452116L173.23436479449802,125.56148855252701L173.79772354931302,143.64196840741417L174.24036257095335,142.18762970512563L174.5375188372294,161.7677200219848L174.8191982146369,154.34007705341685L175.26183723627727,148.61746138876134L175.38565234722563,128.39686308123848L175.4166061249627,118.43374838612297L175.9056758132087,150.5150654749437L176.15640141287912,163.85335562987763L176.36069634594386,157.15103738416326L176.45355767915515,130.26491694558752L176.8621475452847,136.21918416565114L176.89619670079549,148.17628176103938L176.91167358966405,141.02835919098422L177.0045349228753,142.6266271255233L177.03548870061238,150.16837180744517L177.28621430028278,143.73357288945806L177.39764790013632,126.39214999025518L177.52455838885837,145.02106315439397L177.74433021079167,146.48925465345383L177.97957892159354,148.81511391292918L178.54603305418226,137.243640081449L178.71937420950997,168.82860748334366L178.75032798724703,120.02794125947085L178.90509687593246,133.34327604012057L179.06296114239163,151.2461652105505L179.26725607545643,129.76720488613302L179.2982098531935,129.9878368973732L179.53655394176909,151.46592916141856L179.81823331917656,145.5105527531017L180.35063829625446,123.45200539718974L180.7437512735155,111.34150224382228L180.82423109563192,109.4626820195805L180.9635230954488,163.69348784468392L181.39068522822063,159.8210584683852L181.7342721611023,148.3639395345341L181.74974904997083,147.68381423299962L182.00357002741495,161.88566772504288L182.41215989354453,154.3284788023342L182.48954433788722,161.0035978230563L182.88265731514826,147.0668885491111L183.00647242609662,163.54092623428866L183.07147535934448,153.35818020863968L183.10242913708157,175.5174346241084L183.1179060259501,169.1160680868409L183.41506229222614,156.6711687879129L183.48006522547402,134.44900410825556L183.68436015853882,173.78671514446086L183.82674753612943,122.73405918749896L183.90413198047216,147.1889113133604L184.01247020255195,161.92004050449893L184.28176806886464,148.02494990283793L184.4551092241923,157.70660807869652L184.97203731240165,148.88662038608032L185.0989478011237,109.41290116851981L185.80469393352934,117.74734170328486L185.8696968667772,115.70901538567111L186.08946868871055,136.76994435895574L186.2597144662645,148.14623722704974L186.30924051064386,160.1345849958333L186.5444892214457,163.42971805550835L186.73330726564194,136.23857084729454L187.03046353191797,164.68112353303215L187.15737402064005,144.7392328869213L187.2811891315884,147.22116216746244L187.80121259757146,129.96621978282928L188.09836886384753,138.46571235223252L188.1324180193583,129.64191483909434L188.36766673016018,149.53867840225047L188.60291544096205,139.44518586180428L189.6398669951545,137.31402530995283L189.76677748387655,149.44976249608126L190.22179801661173,147.55661927569997L190.50347739401926,127.90233390981501L190.54990806062486,173.15972237153488L190.86563659354317,144.6930207285014L191.80972681452434,155.46071888100016L191.90258814773557,139.13490250435743L191.9335419254727,137.50380500880155L192.23379356952242,147.11033979329196L192.56190361353558,160.5382692380385L192.98597036853366,141.3943913145499L193.64838121210735,152.96651619130915L194.0569710782369,156.60239911621267L194.92058147710165,164.9923834583976L195.1558301879035,152.4067016460679L195.6108507206387,110.26836260882291L195.7222843204922,139.63731655749407L196.0349174756368,130.60396685925397L196.39707667516072,122.8185262842612L196.47446111950345,159.82714694738388L196.66327916369968,170.15179673108187L196.85209720789592,142.3328971971165L196.93257703001234,153.4310490543192L197.5454618292067,136.6527682651173L197.56093871807522,121.47187529368836L197.63832316241792,143.00359439849854L197.85809498435125,186.18965819207105L198.70622849434747,161.82929202643308L198.94457258292306,120.99845686825839L199.3500670712789,145.22516584938222L199.3531624490526,169.76182060891932L199.47697756000096,111.98182938857512L199.65031871532864,80.05884892290288L199.82365987065634,175.37324015118858L200.04343169258965,125.72261020270261L200.10533924806384,142.88254820216787L200.35606484773425,164.51730125058782L200.60988582517837,147.58149161663923L200.87608831371733,138.73853649334475L201.09586013565064,166.1683761910959L201.23824751324125,163.10044587742198L201.28467817984688,120.67371789433739L201.45801933517455,135.162634128874L201.4734962240431,169.59344100952148L201.53540377951728,157.64759202978829L201.94399364564683,125.52845403281125L202.3216297340393,143.21271255341443L202.8076040445116,132.78096582130954L203.0273758664449,146.74990183656865L203.54739933242797,146.2778819528493L203.6247837767707,122.64299724318764L204.31814839808146,137.48226023262197L204.38005595355563,165.29432379115713L204.66483070873684,167.26345846327868L205.38605373001099,137.94043937596408L205.76368981840344,139.66244208270854L205.8101204850091,142.34015514633873L206.42300528420344,157.332763411782L206.65825399500528,157.67584016106346L207.1628005721198,154.79138405214655L207.3825723940531,148.70701628381556L207.5063875050015,146.97562164610082L207.58686732711791,132.38850608197126L208.0728416375902,156.17883388020775L208.3235672372606,177.2446698058735L208.3576163927714,163.66431137106636L208.40404705937704,163.47136084058067L208.59286510357327,99.3543842272325L208.9859780808343,160.8910513845357L209.25218056937322,135.9778392694213L209.36051879145305,154.04182597723874L209.456475502438,153.52921221473L209.7722040353563,163.03531723672694L210.0848371905009,151.61823758753863L210.27365523469712,160.25868145986038L210.7905833229065,151.30393945087087L211.1217887446933,119.30631784959274L211.16821941129896,153.70446395874023L211.3570374554952,162.71300159801137L211.40656349987452,148.0577794638547L211.49942483308578,166.01370471174067L212.12778652114866,143.41241466457194L212.14326341001723,122.35626002333382L212.4249427874247,151.49358652938497L212.4589919429355,160.3793177387931L212.58280705388387,135.6499776894396L212.59828394275243,124.61104683984411L212.61376083162094,135.51957573132083L212.69424065373738,154.05570288679817L212.99139692001341,147.55095277049324L213.0223506977505,142.25457886132327L213.27617167519463,134.38804697990417L214.0128715853373,131.88442824645477L214.2171665184021,174.35149692405355L214.29764634051853,145.72055102478373L214.79909753985936,152.16703258861196L215.39650545018515,150.10734234072945L215.8050953163147,165.93638705665416L216.1982082935757,160.80615025758743L216.27559273791843,141.172975637696L216.35607256003487,154.0168692415411L216.69965949291654,159.15032509782097L217.06181869244045,139.655328810215L217.23515984776816,155.0302453312007L217.2506367366367,129.7779109640555L217.3311165587531,136.7361261736263L217.47040855857003,150.85979395021093L217.72113415824043,145.38147699832916L217.8944753135681,167.60120628638703L217.97495513568455,142.82959651947021L218.2721114019606,147.72596338662234L218.33401895743478,138.4785282991149L218.68070126809013,141.78898503563622L218.71165504582723,161.8667512427677L218.8385655345493,147.5881708589467L219.57526544469198,164.5560263882984L219.92194775534733,150.62046247178858L220.25315317713418,137.79969303174454L220.77008126534358,157.91179584914988L220.7855581542121,144.51330811869013L221.1322404648675,160.8077296452089L221.1631942426046,146.3737302856012L221.17867113147312,143.88618272542953L221.61821477533977,158.24906141649592L221.98037397486368,-12.616265026005834L222.0453769081116,144.18755640766838L222.2651487300449,149.90457790548152L222.35801006325613,161.0854486823082L222.7975537071228,155.45549846237355L222.81303059599134,163.82644575834274L222.92446419584485,150.82534883239052L222.986371751319,150.58356990597466L223.06685157343546,177.9970008514144L223.30210028423733,175.1244564598257L223.9304619723002,151.67674726789647L224.1038031276279,137.75216672637245L224.2740489051819,156.89521275867116L224.41643628277248,139.99412553960627L224.431913171641,169.4873085726391L224.4814392160204,145.61693837425926L224.54334677149456,155.72301779010078L224.60525432696872,141.12552167068827L224.85597992663912,153.47081104191867L224.93645974875554,163.57886770638552L224.99836730422973,172.44165559790352L225.02932108196683,136.02132668278435L225.39148028149074,137.03769275817004L225.67315965889824,155.6186817559329L225.76911636988322,164.29875499551946L225.78459325875178,151.14653117006475L226.01984196955362,158.1103767156601L226.06627263615925,139.34043991023844L226.52438854666815,125.77175206487829L226.5398654355367,158.6940990903161L226.55534232440525,147.36204113201663L226.91440614615544,151.67474590648305L227.11870107922024,166.7472036697648L227.85849636713664,143.85836862434041L228.03183752246434,138.84198035435244L228.95735547680326,-22.727697480808615L229.5702402759976,128.29495038227603L229.61976632037693,120.65623612295497L229.91692258665296,138.7532091249119L230.26360489730834,167.40468706326052L230.29455867504544,165.70213132012975L230.54528427471584,171.752186590975L231.08078462956746,147.49821810288864L231.25412578489514,163.24619562517512L231.5203282734341,151.4294947385788L231.59771271777683,175.0591710860079L231.62866649551393,169.79409557580948L231.77105387310453,164.25777531212026L232.03725636164347,119.46299069036138L232.2601235613505,152.50300812179393L232.36846178343032,133.37757648121226L232.61918738310072,139.84358940341255L232.69966720521714,170.68649780750275L232.80800542729696,130.2316774671728L233.48589315973916,175.3441360159354L233.5632776040819,155.66024014624682L233.79852631488376,150.18238133733922L233.87900613700018,148.35200370441783L234.03377502568563,180.2729948650707L234.14520862553914,174.4933886257085L234.28759600312975,166.52794608744708L234.39593422520957,155.00034547393972L234.53832160280015,153.50606393814087L234.5537984916687,133.16731296886098L234.56927538053725,169.41202844814822L234.7580934247335,133.8517785722559L235.03977280214096,158.02822444655678L235.32454755732218,30.87884031642568L235.49479333487616,151.9464246901599L236.17268106731836,150.08505006811836L236.3460222226461,141.53511354598132L236.51626800020009,155.3624954386191L236.97438391070898,131.17839375409213L237.4448813323127,166.85956926237452L237.89990186504787,177.31165513125333L238.4354022198995,150.43397416851738L238.7820845305549,137.88825930248606L238.92137653037176,156.8584407567978L239.0018563524882,136.69339831308886L239.22162817442154,177.17599658532578L239.4723537740919,153.1028498953039L239.67664870715672,125.1361269138076L239.72307937376235,143.987456435507L240.00475875116985,152.63697877255353L240.27405661748253,154.14313585649836L240.39787172843083,161.29250519384038L241.437918660397,161.5421207763932L241.92389297086928,147.4007421569391L242.04770808181763,139.58362943475896L242.12818790393405,-253.61005494811315L242.47487021458943,144.46066990223798L242.49034710345796,136.93207874623212L242.5986853255378,175.9766506173394L243.053705858273,145.54416597973216L243.1341856803894,154.73957772688433L243.446818835534,163.38856958259237L243.62015999086168,153.82489527897403L243.8708855905321,175.67542161182925L243.92041163491143,148.3394771109928L244.78402203377615,147.0886262275956L244.9728400779724,184.7108811790293L245.115227455563,158.200293302536L245.1771350110372,139.9804777015339L245.26999634424845,164.97256274656817L245.5392942105611,172.52816022526133L245.86740425457424,156.63235925544393L246.05622229877048,147.81216660412875L246.91983269763523,163.15102245049044L247.1550814084371,159.18690419738942L247.23556123055351,162.76855746182528L247.2974687860277,169.7359837564555L247.32842256376478,148.52519380504435L247.34389945263334,164.72029475732285L247.48628683022395,151.63652713732287L247.77106158540516,158.3070044463331L247.9258304740906,179.211031507362L248.0682178516812,157.997938784686L248.11464851828683,161.01015650142324L248.16107918489243,163.29566300999034L248.65014887313842,175.6464621533047L248.69657953974408,169.76360495523974" fill="none"></path></g></g></g></g></g></g><g transform="translate(51, 178)" clip-path="url(#clip_1)"><clipPath id="clip_1"><rect width="278" height="22"></rect></clipPath><g><g><line x1="0" y1="0" x2="0" y2="5" style="visibility: inherit;" fill="rgb(0, 0, 0)" stroke="rgb(204, 204, 204)" stroke-width="1px"></line><line x1="30.953777737087673" y1="0" x2="30.953777737087673" y2="5" style="visibility: inherit;" fill="rgb(0, 0, 0)" stroke="rgb(204, 204, 204)" stroke-width="1px"></line><line x1="61.907555474175346" y1="0" x2="61.907555474175346" y2="5" style="visibility: inherit;" fill="rgb(0, 0, 0)" stroke="rgb(204, 204, 204)" stroke-width="1px"></line><line x1="92.86133321126302" y1="0" x2="92.86133321126302" y2="5" style="visibility: inherit;" fill="rgb(0, 0, 0)" stroke="rgb(204, 204, 204)" stroke-width="1px"></line><line x1="123.81511094835069" y1="0" x2="123.81511094835069" y2="5" style="visibility: inherit;" fill="rgb(0, 0, 0)" stroke="rgb(204, 204, 204)" stroke-width="1px"></line><line x1="154.76888868543838" y1="0" x2="154.76888868543838" y2="5" style="visibility: inherit;" fill="rgb(0, 0, 0)" stroke="rgb(204, 204, 204)" stroke-width="1px"></line><line x1="185.72266642252603" y1="0" x2="185.72266642252603" y2="5" style="visibility: inherit;" fill="rgb(0, 0, 0)" stroke="rgb(204, 204, 204)" stroke-width="1px"></line><line x1="216.6764441596137" y1="0" x2="216.6764441596137" y2="5" style="visibility: inherit;" fill="rgb(0, 0, 0)" stroke="rgb(204, 204, 204)" stroke-width="1px"></line><line x1="247.63022189670139" y1="0" x2="247.63022189670139" y2="5" style="visibility: inherit;" fill="rgb(0, 0, 0)" stroke="rgb(204, 204, 204)" stroke-width="1px"></line><line x1="278.58399963378906" y1="0" x2="278.58399963378906" y2="5" style="visibility: inherit;" fill="rgb(0, 0, 0)" stroke="rgb(204, 204, 204)" stroke-width="1px"></line></g><g transform="translate(0, 8)"><text style="text-anchor: middle; visibility: hidden; font-family: &quot;Helvetica Neue&quot;, sans-serif; font-size: 12px; font-weight: 200;" x="0" y="0" dx="0em" dy="0.95em" fill="rgb(50, 49, 63)" stroke="none" stroke-width="1px">0</text><text style="text-anchor: middle; visibility: inherit; font-family: &quot;Helvetica Neue&quot;, sans-serif; font-size: 12px; font-weight: 200;" x="30.953777737087673" y="0" dx="0em" dy="0.95em" fill="rgb(50, 49, 63)" stroke="none" stroke-width="1px">20k</text><text style="text-anchor: middle; visibility: hidden; font-family: &quot;Helvetica Neue&quot;, sans-serif; font-size: 12px; font-weight: 200;" x="61.907555474175346" y="0" dx="0em" dy="0.95em" fill="rgb(50, 49, 63)" stroke="none" stroke-width="1px">40k</text><text style="text-anchor: middle; visibility: inherit; font-family: &quot;Helvetica Neue&quot;, sans-serif; font-size: 12px; font-weight: 200;" x="92.86133321126302" y="0" dx="0em" dy="0.95em" fill="rgb(50, 49, 63)" stroke="none" stroke-width="1px">60k</text><text style="text-anchor: middle; visibility: hidden; font-family: &quot;Helvetica Neue&quot;, sans-serif; font-size: 12px; font-weight: 200;" x="123.81511094835069" y="0" dx="0em" dy="0.95em" fill="rgb(50, 49, 63)" stroke="none" stroke-width="1px">80k</text><text style="text-anchor: middle; visibility: inherit; font-family: &quot;Helvetica Neue&quot;, sans-serif; font-size: 12px; font-weight: 200;" x="154.76888868543838" y="0" dx="0em" dy="0.95em" fill="rgb(50, 49, 63)" stroke="none" stroke-width="1px">100k</text><text style="text-anchor: middle; visibility: hidden; font-family: &quot;Helvetica Neue&quot;, sans-serif; font-size: 12px; font-weight: 200;" x="185.72266642252603" y="0" dx="0em" dy="0.95em" fill="rgb(50, 49, 63)" stroke="none" stroke-width="1px">120k</text><text style="text-anchor: middle; visibility: inherit; font-family: &quot;Helvetica Neue&quot;, sans-serif; font-size: 12px; font-weight: 200;" x="216.6764441596137" y="0" dx="0em" dy="0.95em" fill="rgb(50, 49, 63)" stroke="none" stroke-width="1px">140k</text><text style="text-anchor: middle; visibility: hidden; font-family: &quot;Helvetica Neue&quot;, sans-serif; font-size: 12px; font-weight: 200;" x="247.63022189670139" y="0" dx="0em" dy="0.95em" fill="rgb(50, 49, 63)" stroke="none" stroke-width="1px">160k</text><text style="text-anchor: middle; visibility: hidden; font-family: &quot;Helvetica Neue&quot;, sans-serif; font-size: 12px; font-weight: 200;" x="278.58399963378906" y="0" dx="0em" dy="0.95em" fill="rgb(50, 49, 63)" stroke="none" stroke-width="1px">180k</text></g><line x1="0" y1="0" x2="278.58399963378906" y2="0" fill="rgb(0, 0, 0)" stroke="rgb(204, 204, 204)" stroke-width="1px"></line></g></g></g></g></svg>