<svg viewBox="0 0 330 200" xmlns="http://www.w3.org/2000/svg"><g><g><g><g><g><line x1="51.41600036621094" y1="178" x2="46.41600036621094" y2="178" style="visibility: inherit;" fill="rgb(0, 0, 0)" stroke="rgb(204, 204, 204)" stroke-width="1px"></line><line x1="51.41600036621094" y1="158.2222222222222" x2="46.41600036621094" y2="158.2222222222222" style="visibility: inherit;" fill="rgb(0, 0, 0)" stroke="rgb(204, 204, 204)" stroke-width="1px"></line><line x1="51.41600036621094" y1="138.4444444444444" x2="46.41600036621094" y2="138.4444444444444" style="visibility: inherit;" fill="rgb(0, 0, 0)" stroke="rgb(204, 204, 204)" stroke-width="1px"></line><line x1="51.41600036621094" y1="118.66666666666666" x2="46.41600036621094" y2="118.66666666666666" style="visibility: inherit;" fill="rgb(0, 0, 0)" stroke="rgb(204, 204, 204)" stroke-width="1px"></line><line x1="51.41600036621094" y1="98.88888888888886" x2="46.41600036621094" y2="98.88888888888886" style="visibility: inherit;" fill="rgb(0, 0, 0)" stroke="rgb(204, 204, 204)" stroke-width="1px"></line><line x1="51.41600036621094" y1="79.1111111111111" x2="46.41600036621094" y2="79.1111111111111" style="visibility: inherit;" fill="rgb(0, 0, 0)" stroke="rgb(204, 204, 204)" stroke-width="1px"></line><line x1="51.41600036621094" y1="59.3333333333333" x2="46.41600036621094" y2="59.3333333333333" style="visibility: inherit;" fill="rgb(0, 0, 0)" stroke="rgb(204, 204, 204)" stroke-width="1px"></line><line x1="51.41600036621094" y1="39.555555555555515" x2="46.41600036621094" y2="39.555555555555515" style="visibility: inherit;" fill="rgb(0, 0, 0)" stroke="rgb(204, 204, 204)" stroke-width="1px"></line><line x1="51.41600036621094" y1="19.777777777777715" x2="46.41600036621094" y2="19.777777777777715" style="visibility: inherit;" fill="rgb(0, 0, 0)" stroke="rgb(204, 204, 204)" stroke-width="1px"></line><line x1="51.41600036621094" y1="0" x2="46.41600036621094" y2="0" style="visibility: inherit;" fill="rgb(0, 0, 0)" stroke="rgb(204, 204, 204)" stroke-width="1px"></line></g><g transform="translate(41.41600036621094, 0)"><text style="text-anchor: end; visibility: hidden; font-family: &quot;Helvetica Neue&quot;, sans-serif; font-size: 12px; font-weight: 200;" x="0" y="178" dx="0em" dy="0.3em" fill="rgb(50, 49, 63)" stroke="none" stroke-width="1px">0.7</text><text style="text-anchor: end; visibility: inherit; font-family: &quot;Helvetica Neue&quot;, sans-serif; font-size: 12px; font-weight: 200;" x="0" y="158.2222222222222" dx="0em" dy="0.3em" fill="rgb(50, 49, 63)" stroke="none" stroke-width="1px">0.75</text><text style="text-anchor: end; visibility: hidden; font-family: &quot;Helvetica Neue&quot;, sans-serif; font-size: 12px; font-weight: 200;" x="0" y="138.4444444444444" dx="0em" dy="0.3em" fill="rgb(50, 49, 63)" stroke="none" stroke-width="1px">0.8</text><text style="text-anchor: end; visibility: inherit; font-family: &quot;Helvetica Neue&quot;, sans-serif; font-size: 12px; font-weight: 200;" x="0" y="118.66666666666666" dx="0em" dy="0.3em" fill="rgb(50, 49, 63)" stroke="none" stroke-width="1px">0.85</text><text style="text-anchor: end; visibility: hidden; font-family: &quot;Helvetica Neue&quot;, sans-serif; font-size: 12px; font-weight: 200;" x="0" y="98.88888888888886" dx="0em" dy="0.3em" fill="rgb(50, 49, 63)" stroke="none" stroke-width="1px">0.9</text><text style="text-anchor: end; visibility: inherit; font-family: &quot;Helvetica Neue&quot;, sans-serif; font-size: 12px; font-weight: 200;" x="0" y="79.1111111111111" dx="0em" dy="0.3em" fill="rgb(50, 49, 63)" stroke="none" stroke-width="1px">0.95</text><text style="text-anchor: end; visibility: hidden; font-family: &quot;Helvetica Neue&quot;, sans-serif; font-size: 12px; font-weight: 200;" x="0" y="59.3333333333333" dx="0em" dy="0.3em" fill="rgb(50, 49, 63)" stroke="none" stroke-width="1px">1</text><text style="text-anchor: end; visibility: inherit; font-family: &quot;Helvetica Neue&quot;, sans-serif; font-size: 12px; font-weight: 200;" x="0" y="39.555555555555515" dx="0em" dy="0.3em" fill="rgb(50, 49, 63)" stroke="none" stroke-width="1px">1.05</text><text style="text-anchor: end; visibility: hidden; font-family: &quot;Helvetica Neue&quot;, sans-serif; font-size: 12px; font-weight: 200;" x="0" y="19.777777777777715" dx="0em" dy="0.3em" fill="rgb(50, 49, 63)" stroke="none" stroke-width="1px">1.1</text><text style="text-anchor: end; visibility: hidden; font-family: &quot;Helvetica Neue&quot;, sans-serif; font-size: 12px; font-weight: 200;" x="0" y="0" dx="0em" dy="0.3em" fill="rgb(50, 49, 63)" stroke="none" stroke-width="1px">1.15</text></g><line x1="51.41600036621094" y1="0" x2="51.41600036621094" y2="178" fill="rgb(0, 0, 0)" stroke="rgb(204, 204, 204)" stroke-width="1px"></line></g></g><g transform="translate(51, 0)" clip-path="url(#clip_0)"><clipPath id="clip_0"><rect width="278" height="178"></rect></clipPath><g><g><g><line x1="0" y1="0" x2="0" y2="178" fill="rgb(0, 0, 0)" stroke="rgb(60, 60, 60)" stroke-width="1px" opacity="0.25"></line><line x1="34.82299995422363" y1="0" x2="34.82299995422363" y2="178" fill="rgb(0, 0, 0)" stroke="rgb(60, 60, 60)" stroke-width="1px" opacity="0.25"></line><line x1="69.64599990844727" y1="0" x2="69.64599990844727" y2="178" fill="rgb(0, 0, 0)" stroke="rgb(60, 60, 60)" stroke-width="1px" opacity="0.25"></line><line x1="104.4689998626709" y1="0" x2="104.4689998626709" y2="178" fill="rgb(0, 0, 0)" stroke="rgb(60, 60, 60)" stroke-width="1px" opacity="0.25"></line><line x1="139.29199981689453" y1="0" x2="139.29199981689453" y2="178" fill="rgb(0, 0, 0)" stroke="rgb(60, 60, 60)" stroke-width="1px" opacity="0.25"></line><line x1="174.11499977111816" y1="0" x2="174.11499977111816" y2="178" fill="rgb(0, 0, 0)" stroke="rgb(60, 60, 60)" stroke-width="1px" opacity="0.25"></line><line x1="208.9379997253418" y1="0" x2="208.9379997253418" y2="178" fill="rgb(0, 0, 0)" stroke="rgb(60, 60, 60)" stroke-width="1px" opacity="0.25"></line><line x1="243.76099967956543" y1="0" x2="243.76099967956543" y2="178" fill="rgb(0, 0, 0)" stroke="rgb(60, 60, 60)" stroke-width="1px" opacity="0.25"></line><line x1="278.58399963378906" y1="0" x2="278.58399963378906" y2="178" fill="rgb(0, 0, 0)" stroke="rgb(60, 60, 60)" stroke-width="1px" opacity="0.25"></line></g><g><line x1="0" y1="178" x2="278.58399963378906" y2="178" fill="rgb(0, 0, 0)" stroke="rgb(60, 60, 60)" stroke-width="1px" opacity="0.25"></line><line x1="0" y1="158.2222222222222" x2="278.58399963378906" y2="158.2222222222222" fill="rgb(0, 0, 0)" stroke="rgb(60, 60, 60)" stroke-width="1px" opacity="0.25"></line><line x1="0" y1="138.4444444444444" x2="278.58399963378906" y2="138.4444444444444" fill="rgb(0, 0, 0)" stroke="rgb(60, 60, 60)" stroke-width="1px" opacity="0.25"></line><line x1="0" y1="118.66666666666666" x2="278.58399963378906" y2="118.66666666666666" fill="rgb(0, 0, 0)" stroke="rgb(60, 60, 60)" stroke-width="1px" opacity="0.25"></line><line x1="0" y1="98.88888888888886" x2="278.58399963378906" y2="98.88888888888886" fill="rgb(0, 0, 0)" stroke="rgb(60, 60, 60)" stroke-width="1px" opacity="0.25"></line><line x1="0" y1="79.1111111111111" x2="278.58399963378906" y2="79.1111111111111" fill="rgb(0, 0, 0)" stroke="rgb(60, 60, 60)" stroke-width="1px" opacity="0.25"></line><line x1="0" y1="59.3333333333333" x2="278.58399963378906" y2="59.3333333333333" fill="rgb(0, 0, 0)" stroke="rgb(60, 60, 60)" stroke-width="1px" opacity="0.25"></line><line x1="0" y1="39.555555555555515" x2="278.58399963378906" y2="39.555555555555515" fill="rgb(0, 0, 0)" stroke="rgb(60, 60, 60)" stroke-width="1px" opacity="0.25"></line><line x1="0" y1="19.777777777777715" x2="278.58399963378906" y2="19.777777777777715" fill="rgb(0, 0, 0)" stroke="rgb(60, 60, 60)" stroke-width="1px" opacity="0.25"></line><line x1="0" y1="0" x2="278.58399963378906" y2="0" fill="rgb(0, 0, 0)" stroke="rgb(60, 60, 60)" stroke-width="1px" opacity="0.25"></line></g></g></g><g><g><line x1="0" y1="454.8888888888889" x2="278.58399963378906" y2="454.8888888888889" fill="rgb(0, 0, 0)" stroke="rgb(153, 153, 153)" stroke-width="1.5px"></line></g></g><g><g><line x1="34.82299995422363" y1="0" x2="34.82299995422363" y2="178" fill="rgb(0, 0, 0)" stroke="rgb(153, 153, 153)" stroke-width="1.5px"></line></g></g><g><g><g><g><g><path style="fill: none;" stroke="rgb(204, 51, 17)" stroke-width="2px" d="M35.25550161365509,126.49260086483423L35.276395413627625,51.77077818757597L35.45747501338958,33.436748916994986L35.61766081317902,68.27858074536665L36.06339521259308,102.7508566693691L36.12607661251068,119.39740698882471L36.557881811943055,116.10752961878765L36.59270481189728,125.12930036100865L36.73269327171326,120.00336654641107L36.85805607154846,118.90747973006988L37.10181707122803,115.84802751786205L37.115746271209716,113.45642333118921L37.17146307113647,102.84623511602707L37.88881687019348,107.53716838929071L38.160436269836424,111.97451521729656L38.251672529716494,108.9267747684184L38.68347772914886,113.75029816653698L38.87152192890167,115.1355356350831L38.982955528755184,112.82987184791247L39.0317077286911,115.63760509929205L39.36600852825165,116.70824733006789L39.45654832813263,121.08713456684995L39.55405272800446,120.74833143340828L39.62369872791291,119.2903350258108L39.916908387527464,121.60149209439871L39.97262518745423,119.69334090165518L40.313890587005616,121.48143753558784L40.41139498687744,122.47116782125573L40.529793186721804,122.48721818469336L40.571580786666864,120.15170828124572L40.76658958641052,120.96179639068588L41.51946284542083,119.21421131361531L41.7005424451828,119.46934048843795L41.93733884487152,117.51336042754622L42.00002024478912,118.8191408311037L42.341285644340516,116.65104979009003L42.36217944431305,117.30597246657284L42.62683424396515,120.04722689730946L43.14987570327759,120.16761820436835L43.71400830253601,122.06512270483199L44.097061302032465,115.85956843099646L44.117955102005006,116.04282731533368L44.21545950187683,119.5727438659016L44.243317901840214,120.43030380394819L44.57761870140075,119.52623340557517L44.62637090133667,119.69689087640222L44.85689916103363,120.98322427480358L44.92654516094208,120.5544828112804L45.13548316066742,118.05242233834247L45.532465360145565,121.12211802985254L45.734438759880064,120.63823489670133L45.84587235973358,119.46958519334L45.957305959587096,119.25076054070652L46.347323559074404,118.5477391380994L46.69625001861572,117.95682161844675L46.82161281845093,119.25674376806127L46.88429421836853,118.48378985484818L46.981798618240354,117.59594019123418L46.99572781822205,115.41699185168856L47.016621618194584,115.43780164845543L47.323064017791744,116.4643163439154L47.76183381721496,117.80492271651823L47.824515217132564,118.12943009130183L47.91505501701355,120.15882913841733L47.935948816986084,121.80226204715927L47.99166561691284,121.63363552335517L48.26398147655487,123.0043101041644L48.38237967639923,123.54380173802056L48.47291947628021,123.60102572484163L48.84900787578582,124.15541423504477L49.092768875465396,125.5407076115996L49.37831747509003,124.63598280900875L49.510644874916075,124.64185328592922L50.13815533409119,123.89264151667291L50.22173053398132,121.81220733358879L50.305305733871464,120.44790006165132L50.44459773368836,120.97323924107992L50.47942073364258,120.97756658113056L50.48638533363342,119.20123992782803L50.62567733345032,118.80853505150799L50.66050033340454,118.90907700119023L50.97390733299255,120.87893562428823L51.05748253288269,121.56684520767041L51.30124353256226,123.24716906919588L51.53873639225006,122.3667245653134L51.54570099224091,123.12803390980761L51.86607259181976,123.15240540794488L51.98447079166412,124.06200240090669L51.99839999164581,123.36883888537537L52.03322299160004,122.31187181707095L52.207337991371155,121.60711526028201L52.214302591362,121.07899183334439L52.283948591270445,122.28985093899395L52.297877791252134,121.13756822249476L52.33270079120636,120.36794146992868L52.53467419094086,120.78256821295918L52.63914319080353,119.6325010968604L52.6809307907486,117.77191744006086L53.593989849548336,118.7765871629824L53.9770428490448,118.48493316479053L54.07454724891662,118.64556077225335L54.31830824859619,118.7614869156652L55.057252307624815,117.32831239893903L55.55173890697479,116.86510789287036L55.858181306571964,116.75407561554185L56.04622550632477,117.09843039209355L56.0671193062973,117.5229086817804L56.46479796577454,117.2929095662756L56.89660316520691,117.45367986564645L57.14036416488647,118.19729311429745L57.3771605645752,119.99168661809685L57.47466496444702,120.62724800784625L57.488594164428704,120.86716894973662L57.495558764419556,122.18081740788243L57.89323742389679,121.07859880288277L58.6105912229538,121.57869663108322L58.896139822578434,121.19814460912025L59.112042422294614,120.8776176372667L59.941526281204226,120.52766093546316L60.06688908103943,121.92218238993217L60.080818281021116,121.88985629142218L60.42904828056335,122.00975545938986L60.81906588005066,122.01148391240997L60.923534879913326,122.50486673224054L61.279425939445495,121.08831616243819L61.42568253925324,120.29916619181017L61.47443473918914,120.16036823619623L61.77391253879547,119.80468734316187L62.219646938209536,120.12552421356507L62.41465573795319,121.19690687927309L62.609664537696844,121.36577461687992L62.965555597229006,121.47500424774842L63.397360796661374,120.82170402095599L63.473971396560664,120.43139406637343L63.982387195892336,121.19041503726126L64.07989159576417,122.47536586178632L64.12167919570923,121.15139092874571L64.29579419548034,123.13886365201282L64.33061719543457,124.6404121627826L64.540251655159,125.36969947929606L64.82580025478363,124.68688301532528L64.91634005466462,124.14842189061369L64.9302692546463,125.00382738655225L65.49440185390472,125.53153559687735L66.12887691307068,125.39679994330156L66.24727511291505,125.43680465423401L66.39353171272278,125.9719329030355L67.07606251182555,125.64680693213703L67.32678811149597,126.42366033687503L67.35464651145935,126.4019763185994L67.4103633113861,126.96514784197743L67.91947557071686,127.80474330314635L68.18413037036896,128.29373226791958L68.28163477024079,129.1248230434408L68.54628956989289,128.85098792158848L68.62986476978303,129.8945807744411L68.9223779693985,130.68825533979037L69.38970262878418,130.90292123450462L69.45238402870179,130.63055479142398L69.47327782867431,130.04932521251874L70.00258742797851,130.30334487866068L70.0165166279602,131.19671049744068L70.39260502746582,130.06152979805103L70.58761382720947,131.94923474765815L71.3126286862564,129.97676040659394L71.93944268543243,129.56007525467578L72.05087628528595,129.22369466433807L72.14838068515778,128.06960477236387L72.5732212845993,129.08688154975835L72.72017434440613,128.8984493824193L73.22859014373779,128.84121572732278L73.24251934371948,129.07244794579893L73.46538654342652,129.53609177204362L73.73004134307861,129.03440921118843L74.26004740238189,129.2698320996474L74.36451640224456,127.71794143535544L74.67095880184173,126.5143827208583L75.26294980106354,127.19475060385147L75.38134800090789,127.6407584262617L75.40224180088042,127.84487034725956L75.63903820056915,128.1498032130077L75.65296740055084,128.19315219850643L75.70171960048675,128.5147752392911L75.94617706016541,128.39769977569193L76.09243365997314,127.81409200050602L76.25958405975341,128.72076364241542L76.33619465965272,129.53053037123172L76.52423885940551,131.62532795734873L76.6635308592224,131.59568455334906L77.43660145820618,132.00341044390174L77.50624745811461,132.50145574452628L77.8482093176651,131.91452742493243L77.98053671749115,130.9599961374198L78.07107651737213,131.15688100829192L78.1128641173172,131.51549244371475L78.20340391719819,132.27557650286715L78.60038611667633,131.4866625132848L78.76057191646576,132.50437220144505L78.79539491641998,133.23800137931L78.96254531620025,133.27207584522512L79.11576651599883,132.57922308035953L79.20003817588807,131.9711794903955L79.36718857566834,131.82871283394113L80.03579017478944,131.00099312459275L80.20294057456971,131.07375797630317L80.57902897407531,131.6413109311383L80.64867497398376,131.65746067656474L80.78100237380981,133.28021277853088L81.15082263332367,133.04113124182837L81.42244203296661,132.08854964076164L81.44333583293914,131.92428455483736L81.52691103282929,131.00947750611735L81.74281363254546,130.89432587703624L82.46086389160156,129.46192110511726L82.51658069152833,129.26225527957854L82.62104969139098,129.8223576964591L83.29661589050292,128.39311127601883L83.4776954902649,125.06816012906597L83.63091669006349,126.3667671611072L84.26539174922944,126.4940816743746L84.32110854915618,126.67582317666222L84.60665714878081,126.13565659125413L85.03149774822235,124.28645998482972L85.24740034793854,125.21368891918725L85.6931347473526,124.7682030399369L85.81222940719606,125.80114060482917L85.88187540710449,126.25761504551926L85.88884000709534,127.00981986790913L86.02116740692139,126.9361786622996L86.18135320671081,128.54255747927402L86.31368060653686,130.05423297775812L86.65494600608827,132.28505923521274L86.7245920059967,134.10138692679493L86.74548580596924,134.80451783336085L86.84995480583191,133.80273392203216L87.07978660552979,134.00038442701816L87.75604926464081,133.86047415905347L87.99981026432037,132.75963994549437L88.2992880639267,132.53991995570394L88.34107566387176,132.87829562720302L88.80770386325837,132.72009464565875L88.99644452301025,133.62627977897733L89.0660905229187,132.96327327052904L89.30985152259827,132.06356843083003L89.77647972198486,131.0539178343476L89.9993469216919,131.29776909776777L90.41025832115174,133.12275925984108L90.64775118083953,134.02278353778254L90.72436178073883,132.45855256696757L90.80793698062897,132.32944913343152L90.92633518047333,132.16167609437792L91.72029957942964,132.34257143643725L91.96406057910919,132.83730972467663L92.00584817905427,130.1515408469304L92.48013743843079,130.8745548617582L92.78657983802795,130.11148685042474L92.98855323776245,130.7405814293417L93.02337623771668,129.7650235258805L93.08605763763427,129.40260183999982L93.7128716368103,129.8789417460575L93.73376543678285,130.01097888480996L93.92250609653473,129.70767859876474L93.99215209644318,130.82334634694473L94.39609889591217,130.35278942278254L94.63985989559174,129.87225574083823L94.86969169528962,130.3281503836538L94.87665629528047,128.70577834318198L95.29453229473114,129.22710984348583L96.15187455360412,129.74187055986954L96.17276835357667,129.6658772927215L96.56278595306397,129.19853280382227L96.74386555282594,130.18074770494138L96.76475935279846,129.74392804728245L96.9110159526062,129.7435514997L96.95976815254211,129.2417710691859L97.11995395233154,130.04943998421948L97.23208401218415,129.88160909480123L97.35744681201935,130.42885034550494L97.39923441196441,130.17524938979574L97.78925201145172,129.7504562381587L97.84496881137848,129.45232881753742L98.97393046989441,128.9414581448144L99.02268266983032,128.81139545136799L99.21072686958314,128.74142444811378L99.60074446907043,129.71530232903604L99.82361166877747,128.51590890696727L99.9698682685852,127.6774840856545L100.26934606819152,126.3307482779531L100.29023986816406,126.67468051729426L100.42953186798096,127.22375465253826L100.4720159279251,127.32992573270067L100.65309552768709,128.05797464321387L101.1406175270462,129.53216224249468L101.2032989269638,129.15415388703764L101.25205112689972,130.26913731183873L101.34259092678069,130.35914466541087L101.4958121265793,130.73301235727217L101.76046692623137,128.854908370011L101.96940492595672,128.69429810859754L102.1233225857544,129.0413148385946L102.24868538558961,127.68502607549378L102.73620738494873,128.09569411487257L103.23765858428956,127.62716281441675L103.25855238426209,127.64542132193108L103.53713638389588,127.19608927727165L103.70428678367615,125.4770802496414L104.1507176430893,126.0503535731437L104.69395644237518,125.8294858610926L104.72877944232941,125.7850888610563L104.74967324230194,127.02644880102301L104.9307528420639,128.08994536491622L105.23719524166108,129.6942608890623L105.5095111013031,130.27377998020188L105.62790930114745,130.02333427762227L106.12239590049744,130.6628722713221L106.26168790031434,131.60314123310474L106.31044010025025,131.707932338883L107.09117175922394,131.2845980952633L107.11206555919647,132.87334709777713L107.25832215900421,133.17447883402883L107.66923355846404,134.0153064551654L107.7388795583725,134.92414596475004L107.76673795833588,133.58107822999585L107.96871135807037,133.5559476613833L108.19854315776824,134.29888566276674L108.56070235729219,135.1256677435314L108.67283241714478,135.72307966070107L108.7703368170166,136.00417924883683L108.88177041687013,136.04976449610552L109.00016861671448,136.5832955285563L109.27875261634826,136.85733141807737L109.59912421592713,137.51696190061077L109.60608881591797,138.29252179333164L109.75931001571655,138.756152278844L109.80806221565246,139.4222458366405L110.00307101539613,138.65050701203884L110.07271701530456,138.0764020941633L110.18415061515809,137.56495866221178L110.24683201507568,136.83290107590378L110.33806827495576,137.4787647730015L110.60272307460785,137.7003747341198L110.62361687458039,137.08821770484371L110.86041327426909,136.5075614675054L110.88827167423248,137.23141450815444L111.04845747402192,136.47642563466647L111.09024507396698,137.03725241388324L111.10417427394867,137.85267425425596L111.38275827358245,137.67903332540783L111.42454587352752,137.38991524808102L111.5150856734085,138.0560120476819L111.54990867336272,137.46503827901788L111.98937493278503,136.94417192602518L112.12170233261108,136.33015442141755L112.18438373252869,134.88410428873456L112.4977907321167,135.28663645595233L112.65797653190613,136.10213249222085L112.67190573188782,136.9307889971547L112.67887033187866,137.3465288216582L113.0897817313385,138.33451159425425L113.17335693122864,138.27910255404532L114.19088498989106,137.73138828563825L114.56000878940581,137.66744407125074L114.69930078922272,136.73652012168367L114.9152033889389,136.39419193256225L114.9778847888565,136.70778898143288L115.09628298870086,129.61984811003413L115.20841304855345,129.96328120826527L115.42431564826965,131.5117131837904L115.77951024780275,131.17189593265041L115.93969604759216,130.39371239518346L116.03720044746399,130.34606895817183L116.5525808467865,129.50114684790373L117.34027710575103,129.86289313106556L118.00887870487213,131.70813416110806L118.04370170482635,131.15907077140324L118.14120610469818,132.4248754493457L118.24567510456086,132.54186600707894L118.29442730449676,132.24519108036498L118.50406176422119,131.21562675675335L119.17962796333313,131.5525379147739L119.36070756309509,131.76961858123946L119.38856596305848,131.00447819669108L119.49999956291198,132.0081276807273L119.79251276252748,131.5789151171478L120.23197902194977,132.07640095595852L120.25287282192231,131.91825037952276L120.36430642177581,132.52130746879465L121.03290802089691,132.01392208912603L121.2488106206131,131.8883173975499L121.4020318204117,131.6831736456265L122.05740067955017,130.62173871015L122.55885187889099,129.88671896586976L122.87922347846985,128.65964679979902L123.0742322782135,128.19213496293332L123.47887553768157,128.7182957149806L123.5903091375351,128.75281104520624L123.80621173725127,129.0511029032279L124.30766293659211,127.45018296114313L124.43999033641816,127.33444532160988L124.73946813602447,127.1190880727853L124.87876013584138,125.9584632587302L125.2764387953186,126.75021122871674L125.39483699516296,126.18341376693742L125.58288119491579,126.41757503868988L125.72913779472351,125.66127044175636L125.81271299461365,127.10708183158755L125.91718199447632,127.16020894061838L125.9450403944397,128.24245266206486L126.06343859428405,129.80452736487666L126.31416419395447,129.78318150728984L126.59274819358826,130.04783664254978L126.81631185329437,131.43862003979447L127.33169225261689,131.6117800678416L127.5824178522873,131.16098626509992L127.95154165180206,130.7772317514L127.97940005176544,129.95104084075558L128.11869205158234,129.34195829819018L128.45368931114197,129.35058692940603L128.65566271087647,130.17758002036436L128.94817591049195,130.91635179642736L129.30337051002502,130.32318358356383L129.40783950988768,130.7624933829445L129.46355630981446,129.01740909192196L129.50534390975952,128.8994219735318L129.8744677092743,128.2450452009976L129.89536150924684,128.26680471864864L130.16767736888886,127.9095043768655L130.34179236865998,126.0867256608621L130.54376576839448,125.05089694545161L130.7805621680832,125.19690354493858L131.02432316776276,126.05217049596172L131.1845089675522,126.87993768605057L131.2959425674057,128.4122966826862L131.65879822692872,130.4880314263487L131.79809022674561,130.17959947169234L131.81898402671814,130.8629750089657L131.88863002662657,130.80104324938776L131.93041762657165,129.42750554044738L132.08363882637025,121.53320015775216L132.6547360256195,121.50889513934526L133.63047648433684,121.7169259451552L134.09014008373262,122.0440951563743L134.09710468372344,121.5149938251613L134.13889228366853,122.28610848654898L134.2015736835861,121.88122172360164L134.31997188343047,123.01978933813376L134.40354708332063,124.06954802411792L134.44533468326568,124.28706672449867L134.84997794273377,124.19948266240584L135.19820794227599,123.21774373653864L135.5255441418457,123.29611373951029L135.7762697415161,123.28929528096614L135.9434201412964,121.86321813119872L135.96431394126893,123.61580818487585L136.48039080059053,124.55378479798189L136.52217840053558,125.84530957236325L136.73111640026093,125.91346485616626L136.7937978001785,126.42691912561172L136.82165620014192,126.20391061829937L136.86344380008697,126.53201861899453L137.27435519954682,126.16475392358137L137.5041869992447,126.5278886493747L137.51115159923552,126.195422554293L137.5668683991623,126.41910392608688L137.59472679912568,127.59748521670193L137.71312499897004,127.48869069644616L138.15259125839233,127.02358691888028L138.2849186582184,127.8194358329578L138.51475045791625,128.6897352398678L138.5217150579071,128.22775668792937L138.6888654576874,127.76837911109433L139.2251396569824,129.46624474891132L139.66390945640563,130.3181248852231L139.97801291599274,128.68022346983602L140.28445531558992,128.76915060834204L140.41678271541596,129.7580632178981L140.88341091480257,130.69306041945526L141.28735771427154,130.13774557576417L141.44127537406922,130.54010232391764L142.00540797332764,131.60400484154673L142.20041677307128,132.11310097150886L142.31881497291565,133.16631262421393L142.33274417289735,133.15270405284514L142.55561137260437,131.81042801338592L142.77151397232055,132.44291997786394L143.17615723178864,130.97178611407406L144.17209503047943,132.1112945603944L144.3392454302597,131.20713240820723L144.40192683017733,131.43230308744904L144.44371443012238,129.63054707353942L144.75781788970946,130.82942593708162L144.778711689682,132.2447379416252L144.91103908950805,133.80252808358733L145.04336648933412,133.59184658682233L145.83036628829956,133.87066570110372L145.92787068817137,133.3259319031322L146.36037234760286,130.72321327796698L146.6319917472458,131.06858189650757L146.7782483470535,131.37993411125177L147.27969954639434,132.1036505077524L147.34934554630277,133.92388345307887L147.37720394626615,133.98297022534695L147.70454014583586,134.07655431086317L148.19972320518494,133.64551641566487L148.35294440498353,131.46869465887073L148.4713426048279,131.51441016315022L148.79171420440673,132.2259717415591L149.02851060409546,131.53371788684703L149.48120960350036,131.5209177229532L149.85102986301422,133.13255632773433L150.0321094627762,133.08592260470485L150.06693246273042,132.87885897875537L150.56141906208038,134.27659669990376L150.8121446617508,135.67066068705464L151.1534100613022,136.61374288060702L151.57894712074278,137.73054628991093L151.58591172073363,137.77325148736014L151.76002672050475,138.54500022136483L151.82270812042236,137.76771951451377L151.92021252029417,138.7202114306757L152.21272571990966,138.21862426791165L153.36954577838898,138.06408764961645L153.58544837810516,138.17925994896265L153.82224477779388,138.44443944664022L153.9824305775833,139.37959350828137L154.2470853772354,138.52334536857614L154.31673137714387,138.90673057368844L154.56815343681333,139.9269503537965L154.6238702367401,140.49628627786223L154.79798523651124,138.92467510113278L154.92334803634643,139.5809077653329L154.93727723632813,139.24711491050832L155.09746303611755,138.10997431509503L155.1044276361084,138.7378555849108L155.11139223609925,138.99564206848527L155.13228603607178,139.78890312545155L155.26461343589784,140.0957836512662L155.5083744355774,140.5686910849872L155.62677263542176,140.48408638833502L155.72427703529357,139.32614397527598L155.8705336351013,141.12500845756693L155.99589643493653,141.27939848762566L156.06554243484496,141.46749949103673L156.6791236940384,141.07467682832223L156.77662809391023,141.43924877525856L156.8184156938553,142.8748977224326L156.91592009372712,142.8353048691557L156.97860149364473,143.79157581083476L157.0273536935806,144.38495242273956L157.0343182935715,144.7815089571958L157.23629169330596,137.65813030019774L157.30593769321442,138.6071008448206L157.4452296930313,138.16832198859385L157.91951895240783,137.71443714551788L158.26078435195922,136.67396414810514L158.2677489519501,136.253523035149L158.4906161516571,136.29562610315082L158.7552709513092,134.43193601505072L159.5220734103012,134.34658895205047L159.5847548102188,133.79416333915955L159.69618841007232,132.094453870689L159.71708221004488,131.93345988387287L159.77976360996246,132.20786202928616L159.9747724097061,131.2678031823399L160.21853340938566,132.1843250278535L160.30210860927582,133.29333579083567L160.57372800891875,133.5938551739168L160.74784300868987,135.30593925980278L160.86624120853423,134.4772413935659L161.3335658679199,133.15745828670418L161.48678706771852,132.8250992600934L161.68179586746217,131.9126049856591L162.0578842669678,131.84316258177785L162.36432666656495,132.84019696678766L162.97790792575836,133.012398633107L162.9848725257492,133.25639726774438L163.5907927249527,132.80499051711564L163.64650952487943,131.37559746204215L163.95991652446747,130.8722756098131L164.79636498336794,130.5738581128993L164.8451171833038,131.37334815538435L165.04709058303834,131.40625481479387L165.3047807826996,130.8454948133425L165.71569218215942,130.83835702534893L166.04372484172822,131.33060976804646L166.322308841362,131.88715483845388L166.49642384113312,132.71005099236407L166.6287512409592,133.04737804943588L166.6635742409134,132.97208954501107L166.8237600407028,131.08839019571357L166.9769812405014,131.721300806188L167.12323784030914,132.23175897475753L167.5905624996948,132.64424465052954L167.9596862992096,131.89391963881585L168.36363309867858,131.3846875343928L168.67007549827574,132.0701641601721L168.6979338982391,132.4105728347295L168.87204889801026,131.54623728134908L170.15423175632478,131.9692358424768L170.25870075618744,130.51534224290793L170.27959455615996,130.42220538551743L170.43281575595856,129.20331595976853L170.4746033559036,129.63865706209208L170.80890415546418,130.4583489422136L170.90710501533508,129.3889354570495L171.18568901496886,129.67607384677095L171.22747661491394,130.89945821305898L171.32498101478578,129.88072748823194L171.40159161468506,129.5412107152349L171.46427301460264,129.09181429100937L171.78464461418153,129.33488552655058L171.83339681411744,129.4350293286093L171.86125521408078,128.7881464799951L171.9030428140259,130.60869239497072L172.31395421348572,131.36221942634657L172.50199841323854,131.00531976645834L172.6559160730362,130.25462886629015L173.14343807239533,130.45345028323456L173.2966592721939,130.62189915284L173.5264910718918,131.16285855632265L173.64488927173616,132.48775891915707L173.69364147167204,133.7676058617768L173.97222547130585,132.61361160406256L174.06276527118683,133.69197375666147L174.09758827114106,134.0152359210977L174.13937587108612,133.44846396924822L174.1540015310669,134.09418135072434L174.6833111303711,133.6235668602869L174.69027573036195,134.19511317827934L174.70420493034362,133.56543106099804L174.9967181299591,133.79907995982506L175.01761192993163,134.23341049997657L175.23351452964783,134.05431662199985L175.42155872940063,135.4642182338804L175.44245252937318,135.5524510674464L175.4772755293274,135.0647068740056L175.86102498882292,135.11882591593007L175.9654939886856,134.32398370384095L176.02817538860322,135.1153403341079L176.04210458858492,134.5772333721551L176.31372398822785,134.75721488955315L176.3833699881363,134.34407946004137L176.48087438800812,135.45517122357978L176.78035218761443,137.19429285914472L177.09375918720247,136.81583956038943L177.3793077868271,138.27322916692083L177.46357944671632,138.07438634409635L177.47054404670715,138.54223034999833L177.60983604652407,138.50962138268667L177.62376524650574,139.24866234751642L177.65858824645994,141.10800362796488L177.73519884635925,140.7640157196618L178.50130484535217,141.89057227739036L178.50826944534302,142.63241668287787L178.65452604515073,142.04157257069403L179.12185070453643,141.21902591772988L179.12881530452728,140.79487370100827L179.14970910449983,141.53960796349452L179.15667370449066,140.76841595106467L179.42829310413362,140.56847075657026L179.4909745040512,139.08610060099932L179.6581249038315,138.66170393015724L179.88795670352934,138.58332143250905L180.06207170330046,139.3756949023556L180.3127973029709,139.1896493495837L180.57745210262297,139.310801035582L180.849767962265,139.7287950006754L180.90548476219178,140.52705379172215L181.1283519618988,140.09455896078927L181.2188917617798,138.3246249659268L181.66462616119384,137.98900868010554L182.11732516059877,138.000855776415L182.27751096038818,138.07036574507606L182.85626921962736,137.14124292943757L182.87716301959992,136.25611406425986L182.91198601955415,134.58888301413106L183.37861421894073,134.40150169309297L183.50397701877594,133.7291420624358L184.02005387809754,134.08085290003186L184.29167327774047,133.6322697048931L184.29863787773132,133.1997832741884L184.90455807693482,134.6379571682588L185.39208007629392,134.4187102733717L185.4826198761749,134.05019223946007L185.67832513591767,134.76873055377837L185.6852897359085,134.0209054308848L185.97083833553316,133.3754350701406L186.1379887353134,134.02803024012724L186.1797763352585,135.26255997161957L186.31906833507537,135.2709259928233L186.36085593502045,136.3737133218023L186.50711253482817,137.05427796681596L186.54890013477325,136.2576711432502L186.96677613422395,136.38328670918105L187.371419393692,136.43488605785498L187.59428659339906,134.86063054835242L187.64303879333497,135.5730763229549L188.22806519256594,135.32808226619252L189.12719505138398,136.234609211377L189.30131005115507,135.82291001190754L189.39184985103606,135.3477043745959L189.57989405078888,134.85682334281194L189.62864625072478,135.13833692319298L189.7052568506241,135.42155675118076L189.7400798505783,135.19540244814874L189.79579665050508,135.2663006888042L189.8933010503769,135.48541733168264L190.08830985012057,136.19914615340116L190.56259910949706,135.7508789694459L190.5834929094696,135.69874796657183L190.8760061090851,136.69985522614877L191.11976710876465,137.24765473126334L191.3774573084259,137.91227785215074L192.01123590759278,138.34029678649094L192.1226695074463,134.43159078247194L192.86161356647492,134.87148962354703L192.91036576641082,136.0073864632434L192.99394096630095,136.90656654589367L193.33520636585237,136.553596918386L193.34913556583405,135.7863766173743L193.42574616573336,136.32066853949215L193.43271076572418,136.44723141961833L193.4675337656784,135.7044827425877L194.05325662490844,135.47028607746432L194.07415042488097,135.81255919494677L195.09794662353517,135.70899734427059L195.12580502349854,135.94237555745343L195.13276962348937,135.82014224860302L195.25116782333373,133.65777032821546L195.35563682319642,133.22887287064148L195.42528282310485,133.02923105841995L195.49562528301237,133.22695563690064L195.5304482829666,132.67619008422517L195.56527128292086,133.01550961659805L195.59312968288424,132.1311296260338L195.6349172828293,132.42483343060664L195.80206768260953,132.22970167967532L195.87171368251802,131.9291711489447L196.05279328227996,130.7163123017079L196.06672248226164,130.4195470838933L196.36620028186798,129.9381192330561L196.52638608165742,129.43394640870628L196.8815806811905,128.78647220272734L197.04873108097075,127.17369696249571L197.17479034080506,116.74456041544761L197.27229474067687,118.35787132997433L197.50212654037475,118.85406499917381L198.2891263393402,119.96569321546136L198.6303917388916,120.15300147523352L199.0489641983414,121.095222467697L199.18825619815826,120.70513022277663L199.26486679805757,120.27519542806658L199.40415879787443,120.13797600879109L199.82203479732513,119.54653395645659L199.91257459720612,119.79874796130049L200.17026479686737,120.63364456834466L200.3095567966843,119.67640461024052L200.3798992565918,120.86364900435804L200.97885485580446,120.4223897118057L201.0485008557129,120.57187127512043L202.0242413144302,121.24514366100826L202.2819315140915,121.83366031476896L202.29586071407317,121.91223235652143L202.49783411380767,121.9545146637533L202.76945351345063,122.7760141437309L203.10375431301117,123.11833005223181L203.4380551125717,123.47491631314216L203.4519843125534,107.56471209857467L203.50770111248016,107.80969600296154L203.71037097221372,107.27381017102212L203.87055677200317,108.52597478111247L203.968061171875,109.62096379443891L204.36504337135315,110.87334172403274L205.03364497047426,112.04492519105808L205.3407838300705,111.63902873915629L205.36864223003388,112.74034446829276L205.78651822948459,113.18675600595816L206.10688982906342,114.07011910837929L206.31582782878874,115.46763062065408L206.46904902858734,115.22825493745941L206.5247658285141,115.86748281959808L206.95726748794556,115.68095220136958L207.3681788874054,114.54833683989096L207.57711688713073,114.01726595588647L207.73033808692932,114.53203088914691L207.9601698866272,114.49032073523298L208.1621432863617,113.87055071056585L208.25964768623354,114.76067557813604L208.4755502859497,115.20997309021755L208.7409015456009,116.08999286591596L209.33985714481355,117.37813518542556L209.8482729441452,116.3347735591662L210.0223879439163,114.52500228293161L210.1129277437973,115.25684271973171L210.16167994373322,116.12635991818283L210.16934100372313,115.38800682016665L210.7195444029999,116.97709481726868L211.13045580245972,118.30931750237471L211.91815206142425,119.3566359113589L212.02262106128694,119.68076466765137L212.38478026081086,120.43218832709175L212.57282446056365,120.43756150165655L213.00462965999606,119.76272879479268L213.17874465976715,120.62420741100848L213.7923259189606,122.22782542422502L214.0500161186218,121.88992600359731L214.2937771183014,122.49566811717187L214.4052107181549,122.7858651835192L214.52360891799927,123.3950650268921L214.8091575176239,122.67251018505965L215.45756177677154,122.99667242998504L215.55506617664335,124.24611403940276L215.6664997764969,124.29626144559222L215.81275637630463,125.60609698023598L215.87543777622224,125.72199792810417L215.98687137607575,126.92973228473556L216.42564117549895,127.83081122058199L216.43260577548983,127.4902523211567L216.53011017536164,128.18182299472548L217.2899480343628,127.98246014028024L217.38048783424378,127.50888996337852L217.4570984341431,127.83584064914852L218.08391243331909,128.36651308746426L218.15355843322754,129.16329255686009L218.1953460331726,130.13397827605345L218.6139184926224,129.4932231743741L218.90643169223787,128.29240652212252L220.00057035079956,128.75772364596074L220.26522515045167,128.17175869240845L220.58559675003053,128.06768625700607L220.5995259500122,128.15880623885386L220.878109949646,129.75135387643547L220.88507454963684,130.15403204644076L220.8920391496277,130.18204400325948L221.00347274948118,130.5603530036239L221.0940125493622,131.25318019079498L221.10794174934387,131.39356025975178L221.79116900844576,130.98388279426524L222.75924840717315,131.2726166839937L222.83585900707243,131.23112192693821L223.27532526649475,130.5995847800437L223.3171128664398,130.89476779391757L223.35890046638488,130.08451746396162L223.3867588663483,102.3103757722981L223.3937234663391,94.25560854648627L223.91606846565244,94.66414496495345L224.19465246528625,94.79828673589847L224.5777054647827,96.30866898291897L225.33057872379302,96.2172550084016L225.40718932369234,96.20405373611261L225.4629061236191,96.93230777472851L225.79720692317963,96.26079570321733L225.96435732295993,96.4802815514986L226.2429413225937,87.09992292803425L226.2638351225662,86.24854401226195L226.4797377222824,87.75619962046716L226.5431155821991,87.04531818986717L226.591867782135,86.85027080873492L226.7172305819702,86.51011056714863L227.11421278144837,85.66112834054546L227.25350478126526,86.20480599240904L227.2743985812378,87.30502034997669L227.42065518104553,88.95267568151179L228.01961078025818,89.81344751031557L228.6471212394333,89.47851007934119L228.66105043941496,89.41958519554659L228.88391763912202,89.24375304294183L229.00928043895723,89.18544707933575L229.16946623874665,87.77165252362165L230.9739940963745,88.22524406105543L231.15507369613647,90.34662268209131L231.4552479557419,90.54193592782937L231.83830095523834,90.12778259421805L232.2701061546707,90.32810462574348L232.3606459545517,91.79958087807599L233.0013891537094,93.25639362305205L233.19709441345216,93.06679388524061L233.4687138130951,94.9226979136718L233.9214128125,95.39174912722581L235.41253367053986,94.78208965909812L235.9627370698166,96.99888480849202L236.14381666957854,97.40861214992519L236.29703786937714,98.7898255503853L236.4230971292114,100.45083494577943L236.56238912902833,102.55613104601643L236.59721212898253,102.34488805113446L236.70864572883607,102.70122796151198L236.79222092872618,103.23047712937736L236.9036545285797,103.68206910136135L237.09169872833252,103.7866564657443L237.56529152770995,104.27052013237669L237.90655692726136,105.4228818351064L237.99709672714235,106.19095076483197L238.04654538707732,104.83696055667694L238.08136838703155,104.63114308673003L238.31120018672942,104.970962682005L238.70818238620757,106.51880470488692L239.2096335855484,107.28694329399809L239.43946538524628,109.01918620603571L239.48821758518218,108.32686611772556L239.5508989850998,109.46691933151814L239.89286084465027,109.17951994769793L239.9137546446228,109.17487765864317L240.06001124443054,110.42132610237968L240.14358644432068,111.6152263085464L240.27591384414671,111.33372627251191L240.40824124397278,111.32431453565435L241.3491587027359,110.52035942466715L241.91329130199432,111.47201447980018L241.92025590198517,110.48623545276656L241.94811430194855,112.24629160458238L242.1570523016739,111.40454253262826L242.28937970149994,111.0899319741227L242.6097513010788,111.9035926961669L243.10493436042785,112.43313444400263L243.1397573603821,113.03110440066267L243.32083696014405,113.64259863557143L243.64120855972288,114.46788796845468L243.74567755958557,113.37484214482859L244.05908455917358,114.39571469447645L244.31677475883484,115.91811831804647L244.6099844184494,116.22377146205572L244.7492764182663,115.87849865100182L244.79106401821136,116.01333503647325L244.88160381809234,116.97686107321599L245.076612617836,117.03739842996032L245.35519661746977,116.91483835670738L245.37609041744233,118.21033325535134L245.6546744170761,118.84720089505275L246.03076281658173,118.60191722366989L246.1213026164627,118.74079872597667L246.28914947624207,118.64419034031164L246.33790167617798,118.91363011965858L246.36576007614136,119.04542399668986L247.055255475235,118.42556772493498L247.0761492752075,118.3040749078035L247.2293704750061,117.53893838463688L247.35473327484132,117.68352132170924L247.57760047454835,117.67747384145545L248.00313753398893,117.19338260290226L248.10064193386077,118.95045110986892L248.21904013370514,117.40964621357126L248.226004733696,117.69224945628746L248.51851793331144,119.16092611260476L249.20801333240507,118.97140266828268L249.3960575321579,119.60610362285038L249.59176279190063,120.7333343711577L250.023567991333,118.50890571597927L250.40662099082945,119.84553731830027L250.74092179039002,120.80006782102723L250.77574479034422,121.85222506142154L251.5216534493637,122.78414526157258L251.598264049263,123.27575659083323L252.4549098481369,124.04682869525519L252.859553107605,124.2842711171802L253.11724330726622,124.98563458286895L253.26349990707396,126.09752968540428L253.52119010673525,124.81804293345036L253.77191570640565,125.35787241194299L253.77888030639647,124.44102928836611L253.9529953061676,123.29357283006229L254.3785323656082,122.9722935716067L254.4203199655533,123.46402574843052L254.52478896541595,124.30735741164048L254.8730189649582,123.62679537025366L254.9844525648117,121.75033743251205L255.05409856472016,122.11644852611096L255.17249676456453,121.57888943812625L255.33268256435395,120.35323287703599L255.6530541639328,119.15205252328181L256.09948502334595,118.03931732981647L256.14823722328185,117.73325712189369L256.2039540232086,118.41810545914643L256.5382548227692,119.87866976337597L256.60093622268676,120.810723485744L256.87255562232974,120.67052177834404L257.0118476221466,121.00563314699701L257.10238742202756,120.28559886395611L257.67418108127595,121.0771083360524L258.10598628070835,121.09151670240416L258.18956148059846,120.98375866574592L258.41939328029633,121.74163490036335L258.43332248027804,122.57237177907382L258.7119064799118,122.40740504420913L259.1646054793167,122.3647744042564L259.67371773864744,123.09512505815118L260.0010539382172,123.9355770338849L260.25177953788756,124.75245787611902L260.4537529376221,125.74698019545721L260.65572633735655,126.69591859550235L260.7462661372375,126.87011543078117L260.76715993721007,128.06091129969934L261.2205553966141,126.70799080325449L261.2414491965866,127.23944286376302L261.5409269961929,126.52696951123323L261.81254639583585,126.55473536436332L261.8821923957443,127.57789008277665L261.90308619571687,126.9897619520638L262.2722099952316,127.88198804797236L262.3627497951126,128.17435977040057" fill="none"></path></g></g></g></g><g opacity="0.2"><g><g><g><path style="fill: none;" stroke="rgb(204, 51, 17)" stroke-width="2px" d="M35.25550161365509,126.49260086483423L35.276395413627625,-21.830217149522582L35.45747501338958,-2.410403463575591L35.61766081317902,169.6995514233907L36.06339521259308,235.54610162311127L36.12607661251068,198.95875655280219L36.557881811943055,97.37905412250092L36.59270481189728,184.60412014855277L36.73269327171326,81.6691675715976L36.85805607154846,109.7553959422641L37.10181707122803,87.66730827755396L37.115746271209716,89.40198225445215L37.17146307113647,-12.719942834642211L37.88881687019348,162.48498164282904L38.160436269836424,167.54303868611652L38.251672529716494,68.33065048853554L38.68347772914886,181.78740570280286L38.87152192890167,135.7460579872131L38.982955528755184,76.76810942755802L39.0317077286911,161.65889252556693L39.36600852825165,135.04839250776502L39.45654832813263,199.28569809595743L39.55405272800446,114.45498906241521L39.62369872791291,91.1778451601664L39.916908387527464,167.77232450909082L39.97262518745423,80.26577329635619L40.313890587005616,159.6354245079888L40.41139498687744,144.24790557225543L40.529793186721804,122.85088184144759L40.571580786666864,65.72780254152082L40.76658958641052,140.3538896242777L41.51946284542083,76.28622017966373L41.7005424451828,125.89367564519245L41.93733884487152,67.07253736919824L42.00002024478912,153.27370368109808L42.341285644340516,58.16594431135387L42.36217944431305,135.35286521911618L42.62683424396515,197.1516541904873L43.14987570327759,123.62170659171208L43.71400830253601,177.5579369333055L44.097061302032465,-69.01306639777295L44.117955102005006,121.60099707709416L44.21545950187683,228.50477525922986L44.243317901840214,147.34204996956717L44.57761870140075,90.68996736738414L44.62637090133667,125.22663662168713L44.85689916103363,163.30560090806748L44.92654516094208,106.2375030517578L45.13548316066742,33.28976461622446L45.532465360145565,226.5783971150716L45.734438759880064,103.78764592276677L45.84587235973358,78.23223792182071L45.957305959587096,111.42952431572806L46.347323559074404,93.10476557413735L46.69625001861572,96.30972162882485L46.82161281845093,167.44295454025266L46.88429421836853,89.49994447496199L46.981798618240354,83.92864084243773L46.99572781822205,31.88429556952579L47.016621618194584,116.2441022131178L47.323064017791744,156.65237469143335L47.76183381721496,170.82289870580036L47.824515217132564,131.09010579850937L47.91505501701355,201.99525531133014L47.935948816986084,188.6991295814514L47.99166561691284,114.70646079381305L48.26398147655487,179.8171037038167L48.38237967639923,146.10105371475217L48.47291947628021,126.01415385140311L48.84900787578582,147.72930134667288L49.092768875465396,184.92752514945136L49.37831747509003,85.5415163040161L49.510644874916075,124.89750242233274L50.13815533409119,91.01719183391992L50.22173053398132,29.842767609490267L50.305305733871464,59.69700776206119L50.44459773368836,144.53250291612412L50.47942073364258,121.1729811562432L50.48638533363342,38.43920591142438L50.62567733345032,100.8349160618252L50.66050033340454,123.54076692793103L50.97390733299255,212.20400322808158L51.05748253288269,153.6583851708306L51.30124353256226,202.11493190129596L51.53873639225006,80.79476928710936L51.54570099224091,159.2854718632168L51.86607259181976,124.31654283735486L51.98447079166412,167.75435887442694L51.99839999164581,89.88950639300873L52.03322299160004,70.9857213762071L52.207337991371155,87.20340824127196L52.214302591362,95.16440063052704L52.283948591270445,182.0071900155809L52.297877791252134,64.02653710047402L52.33270079120636,82.03673219680785L52.53467419094086,141.5316760804918L52.63914319080353,61.81032752990721L52.6809307907486,23.797449429829896L53.593989849548336,169.74894513024222L53.9770428490448,103.62241866853499L54.07454724891662,126.86648411220972L54.31830824859619,124.71977938546073L55.057252307624815,43.36023373073999L55.55173890697479,92.8608384662204L55.858181306571964,110.97708267635767L56.04622550632477,135.0855969323052L56.0671193062973,139.78080474005804L56.46479796577454,105.18705569373235L56.89660316520691,125.94714816411334L57.14036416488647,157.62544250488278L57.3771605645752,215.4750454690721L57.47466496444702,154.56550825966727L57.488594164428704,133.72282573911878L57.495558764419556,192.8080022599962L57.89323742389679,61.62197128931679L58.6105912229538,148.64326175053912L58.896139822578434,100.53730424245197L59.112042422294614,103.42095364464652L59.941526281204226,101.40936840905081L60.06688908103943,198.33637226952445L60.080818281021116,120.11324448055689L60.42904828056335,128.61855787701074L60.81906588005066,122.10702912012734L60.923534879913326,149.85490470462372L61.279425939445495,42.34623633490665L61.42568253925324,76.31321578555634L61.47443473918914,112.40332301457721L61.77391253879547,99.87446191575789L62.219646938209536,138.14965714348685L62.41465573795319,181.538055896759L62.609664537696844,130.90021705627439L62.965555597229006,127.65730211469861L63.397360796661374,83.75664700402152L63.473971396560664,98.2348266177707L63.982387195892336,164.45540152655707L64.07989159576417,195.88592571682398L64.12167919570923,45.34182908799909L64.29579419548034,237.19033442603217L64.33061719543457,210.99356269836426L64.540251655159,167.39980872472125L64.82580025478363,85.2526751094394L64.91634005466462,92.98714017868039L64.9302692546463,174.60702249738904L65.49440185390472,156.19302500618826L66.12887691307068,117.55295292536415L66.24727511291505,127.77021212047998L66.39353171272278,157.24396748012964L67.07606251182555,106.61171637641057L67.32678811149597,171.98892026477387L67.35464651145935,125.12784920798406L67.4103633113861,160.11479102240668L67.91947557071686,177.31106270684134L68.18413037036896,157.1758772532145L68.28163477024079,178.29551818635727L68.54628956989289,112.62308375040688L68.62986476978303,191.83981487486096L68.9223779693985,177.87403308020697L69.38970262878418,143.68531243006385L69.45238402870179,114.38734679751923L69.47327782867431,95.33377742767331L70.00258742797851,145.49800252914426L70.0165166279602,184.71342288123236L70.39260502746582,61.96086634529959L70.58761382720947,245.35531457265216L71.3126286862564,11.31265364752872L71.93944268543243,104.45786783430309L72.05087628528595,108.93187671237519L72.14838068515778,58.35781351725258L72.5732212845993,190.61489809883963L72.72017434440613,117.48684316211273L73.22859014373779,125.370715353224L73.24251934371948,143.1112137370639L73.46538654342652,157.71967956754895L73.73004134307861,98.50183555814952L74.26004740238189,143.61472304662067L74.36451640224456,33.04725212521021L74.67095880184173,53.00895839267304L75.26294980106354,168.79400799009534L75.38134800090789,154.94097116258408L75.40224180088042,140.3522392378913L75.63903820056915,146.8552567164103L75.65296740055084,130.85511435402762L75.70171960048675,148.2854579819573L75.94617706016541,121.19351667828028L76.09243365997314,91.86589124467635L76.25958405975341,184.62392478519016L76.52423885940551,261.0354941685994L76.6635308592224,129.76267645094129L77.43660145820618,157.23868624369302L77.50624745811461,163.35504176881577L77.8482093176651,95.52196862962508L77.98053671749115,71.72174655066593L78.07107651737213,143.3862152629428L78.1128641173172,153.8094426790873L78.20340391719819,179.5679425133599L78.60038611667633,82.3597128126356L78.76057191646576,195.93062761094833L78.79539491641998,178.99643728468152L78.96254531620025,135.3990760379367L79.11576651599883,89.29616891013248L79.20003817588807,93.95707225799558L79.36718857566834,122.91515260272553L80.03579017478944,79.17543374167545L80.20294057456971,135.6330772505866L80.57902897407531,167.2288051181369L80.64867497398376,132.67082230250037L80.78100237380981,235.17544841766357L81.15082263332367,118.01850334803261L81.42244203296661,72.19286113315155L81.44333583293914,121.58887852562796L81.52691103282929,73.4129682117038L81.74281363254546,123.63967222637598L82.46086389160156,39.16188653310138L82.51658069152833,116.6672848595513L82.62104969139098,165.17548868391248L83.29661589050292,38.1258211135864L83.4776954902649,-85.05180422465014L83.63091669006349,208.4802600012885L84.26539174922944,134.5490798950195L84.32110854915618,138.1808730231391L84.60665714878081,91.92155641979639L85.03149774822235,7.093983120388401L85.24740034793854,184.00851927863226L85.6931347473526,96.50522168477374L85.81222940719606,191.3682994842529L85.88187540710449,155.24796660741168L85.88884000709534,174.80612982643973L86.02116740692139,122.25455008612737L86.18135320671081,230.71610440148248L86.74548580596924,179.61212571461994L86.84995480583191,69.93404801686602L87.07978660552979,146.607250796424L87.75604926464081,124.9325377676222L87.99981026432037,62.48271852069428L88.2992880639267,118.50704129536945L88.34107566387176,154.4985025723775L88.80770386325837,122.60777992672388L88.99644452301025,191.57398478190103L89.0660905229187,90.54897721608478L89.30985152259827,74.48418686125011L89.77647972198486,66.41294866138031L89.9993469216919,146.91589662763806L90.41025832115174,250.0536109606425L90.64775118083953,191.710707505544L90.72436178073883,32.16080602010089L90.80793698062897,124.04840220345389L90.92633518047333,121.39641989601981L91.72029957942964,143.953901025984L91.96406057910919,164.6045964558919L92.00584817905427,-42.36111810472278L92.48013743843079,177.33084376653034L92.78657983802795,81.06540907753836L92.98855323776245,171.18867148293387L93.02337623771668,67.02076239056055L93.08605763763427,106.08564392725624L93.7128716368103,160.53450785742865L93.73376543678285,138.5110210312737L93.92250609653473,110.17650381724037L93.99215209644318,202.6886062092251L94.39609889591217,100.03322908613414L94.63985989559174,98.90096971723766L94.86969169528962,159.71971209843952L94.87665629528047,24.08221181233722L95.29453229473114,162.85596492555405L96.15187455360412,162.9558368788825L96.17276835357667,124.7612512376573L96.56278595306397,99.02809662289087L96.74386555282594,193.60610553953381L96.76475935279846,101.52965799967446L96.9110159526062,129.71922413508094L96.95976815254211,96.81558863321938L97.11995395233154,182.25547885894773L97.23208401218415,119.03077962663436L97.35744681201935,165.8181491427951L97.39923441196441,113.77144617504541L97.78925201145172,102.26707421408757L97.84496881137848,110.15966987609862L98.97393046989441,95.87427896923487L99.02268266983032,120.39098093244763L99.21072686958314,124.21044656965466L99.60074446907043,192.79215855068628L99.82361166877747,50.81653796301944L99.9698682685852,73.35133806864418L100.26934606819152,39.05074479844831L100.29023986816406,148.96885940763684L100.42953186798096,162.82248565885754L100.4720159279251,134.214758767022L100.65309552768709,175.27842325634424L101.1406175270462,225.16420459747314L101.2032989269638,104.62785763210718L101.25205112689972,202.62565575705634L101.34259092678069,136.20118739869858L101.4958121265793,155.00363869137232L101.76046692623137,6.911639001634342L101.96940492595672,118.26426945792302L102.1233225857544,151.5803600947062L102.24868538558961,39.578302595350465L102.73620738494873,154.77770079506766L103.23765858428956,97.18077198664345L103.25855238426209,128.8320942984687L103.53713638389588,97.98816458384194L103.70428678367615,13.719247076246432L104.1507176430893,163.32616000705292L104.69395644237518,111.46592712402342L104.72877944232941,122.89742273754541L104.74967324230194,207.77851570977103L105.23719524166108,234.08645274904038L105.5095111013031,167.9880535867479L105.62790930114745,113.72247685326468L106.12239590049744,172.29428890016342L106.26168790031434,192.81901269488864L106.31044010025025,138.53120289908514L107.09117175922394,103.7164906925625L107.11206555919647,236.34785932964746L107.25832215900421,152.7894803153144L107.66923355846404,188.79148048824732L107.7388795583725,194.13809580273096L107.76673795833588,46.06535847981769L107.96871135807037,131.91822253333197L108.19854315776824,182.7206992043389L108.56070235729219,189.01819642384845L108.67283241714478,174.66879410213892L108.7703368170166,154.33127127753363L108.88177041687013,139.0221456951565L109.00016861671448,171.37582529915701L109.27875261634826,154.72958024342853L109.59912421592713,180.54159975051877L109.60608881591797,188.88383139504325L109.75931001571655,169.0027111371358L109.80806221565246,182.88147041532727L110.00307101539613,88.29358275731401L110.07271701530456,100.61176024542912L110.18415061515809,104.18630854288735L110.24683201507568,89.05174668629962L110.33806827495576,179.63791889614527L110.60272307460785,152.16740253236557L110.62361687458039,97.12215969297618L110.86041327426909,98.59479946560327L110.88827167423248,184.4979767269558L111.04845747402192,87.17256959279375L111.09024507396698,173.6645811398824L111.10417427394867,191.11185301674735L111.38275827358245,126.3367808130052L111.42454587352752,118.50317467583548L111.5150856734085,181.57243108749387L111.54990867336272,98.85346216625635L111.98937493278503,102.91051271226668L112.12170233261108,96.20694971084592L112.18438373252869,40.384445614284914L112.4977907321167,161.59410307142468L112.65797653190613,189.4026421440972L112.67190573188782,191.09527842203775L112.67887033187866,164.52292590671112L113.0897817313385,202.92213588290744L113.17335693122864,134.65659077962238L114.19088498989106,101.92075241936575L114.56000878940581,133.4863725238376L114.69930078922272,75.86299037933348L114.9152033889389,114.00778150558469L114.9778847888565,157.21661822001138L115.09628298870086,-333.9505360921225L115.20841304855345,152.426088809967L115.42431564826965,232.7954969406128L115.77951024780275,108.94295787811278L115.93969604759216,79.48636653688217L116.03720044746399,127.22914473215737L116.5525808467865,74.22163396411469L117.34027710575103,153.5316590732998L118.00887870487213,252.4473313755459L118.04370170482635,95.23041608598494L118.14120610469818,215.25877412160236L118.24567510456086,140.1980931493971L118.29442730449676,112.8288633558485L118.50406176422119,63.83087200588648L119.17962796333313,153.60439395904538L119.36070756309509,145.97890154520667L119.38856596305848,80.91885476642182L119.49999956291198,197.70953194300333L119.79251276252748,103.48027324676511L120.23197902194977,164.64609188503687L120.25287282192231,121.56388696034747L120.36430642177581,172.00615501403806L121.03290802089691,98.79166698455808L121.2488106206131,123.66369713677298L121.4020318204117,118.24974605772229L122.05740067955017,61.112874242994494L122.55885187889099,81.75140396753945L122.87922347846985,48.297293874952516L123.0742322782135,97.57302167680525L123.47887553768157,163.17991219626532L123.5903091375351,131.0135278701782L123.80621173725127,148.58964776992795L124.30766293659211,22.583660973442903L124.43999033641816,119.75289440155026L124.73946813602447,113.01130178239607L124.87876013584138,49.92462200588648L125.2764387953186,178.62036138110687L125.39483699516296,89.04924752977156L125.58288119491579,141.7593586709764L125.72913779472351,76.10800202687578L125.81271299461365,221.84018495347763L125.91718199447632,130.6413421630859L125.9450403944397,199.1583589977688L126.06343859428405,232.16547372606064L126.31416419395447,128.38436804877387L126.59274819358826,147.3914672533671L126.81631185329437,222.58354255888196L127.33169225261689,142.96015622880722L127.5824178522873,101.6164683236016L127.95154165180206,105.62565766440495L127.97940005176544,75.80027569664847L128.11869205158234,89.41992431216767L128.45368931114197,129.9161623848809L128.65566271087647,184.38546752929685L128.94817591049195,179.34280623330008L129.30337051002502,91.43999724917938L129.40783950988768,159.56075631247626L129.46355630981446,14.618188963996005L129.50534390975952,121.1645641856723L129.8744677092743,85.34512032402884L129.89536150924684,129.69336022271048L130.16767736888886,104.48429759343463L130.34179236865998,6.5794397989908475L130.54376576839448,57.13699913024901L130.7805621680832,134.77001947826807L131.02432316776276,182.1301673783196L131.65879822692872,266.59854586919147L131.79809022674561,109.95459757910832L131.81898402671814,175.67534118228485L131.88863002662657,126.73978159162732L131.93041762657165,39.35399150848386L132.08363882637025,-396.1681223975288L132.6547360256195,119.9149623446994L133.63047648433684,135.35993830362952L134.09014008373262,143.50082280900742L134.09710468372344,86.81429428524439L134.13889228366853,172.86001777648923L134.2015736835861,95.3260441886054L134.31997188343047,197.69602235158283L134.40354708332063,192.92223257488672L134.44533468326568,138.55416684680512L134.84997794273377,118.45472404691907L135.19820794227599,58.82303386264374L135.5255441418457,128.43668529722424L135.7762697415161,122.84204048580591L135.9434201412964,28.318565050760867L135.96431394126893,238.58019553290472L136.52217840053558,210.5679516262478L136.73111640026093,130.38444773356116L136.7937978001785,160.11000490188596L136.82165620014192,111.57412174012923L136.86344380008697,148.05685589048596L137.27435519954682,102.07077254189383L137.5041869992447,150.351270198822L137.51115159923552,104.38374190860321L137.5668683991623,141.09408791859943L137.59472679912568,204.90818728340994L137.71312499897004,120.35085296630857L138.15259125839233,96.5084517267015L138.2849186582184,180.03521405325995L138.51475045791625,185.7909601529439L138.5217150579071,97.91649066077336L138.6888654576874,97.62739011976451L139.2251396569824,240.86911641226874L139.66390945640563,186.21362410651312L139.97801291599274,21.20921919080942L140.28445531558992,134.60417922337848L140.41678271541596,194.6471456951565L140.88341091480257,192.04509936438666L141.28735771427154,93.6990461349487L141.44127537406922,156.94227684868704L142.00540797332764,201.4167948828803L142.20041677307128,165.52011293835108L142.31881497291565,202.27905103895398L142.33274417289735,132.25968747668793L142.55561137260437,43.72718535529239L142.77151397232055,173.9489191373189L143.17615723178864,34.430653148227236L144.17209503047943,206.8907021416558L144.3392454302597,71.87157805760698L144.40192683017733,146.209248330858L144.44371443012238,11.388241344028017L144.75781788970946,209.50795560412936L144.91103908950805,236.0370915730794L145.04336648933412,119.76513083775836L145.83036628829956,152.16931226518417L145.92787068817137,97.57523790995278L146.36037234760286,-40.09377013312451L146.6319917472458,153.73538748423258L146.7782483470535,151.81438488430445L147.27969954639434,179.6024827427334L147.34934554630277,253.3900556564331L147.37720394626615,137.8610045644972L147.70454014583586,140.21879371007282L148.19972320518494,105.35482925838892L148.35294440498353,-11.405622270372191L148.4713426048279,134.51494047376843L148.79171420440673,178.92954948213364L149.02851060409546,86.09708351559107L149.48120960350036,130.68076282077362L149.85102986301422,238.91522396935358L150.0321094627762,130.0250171555413L150.06693246273042,119.28769763310748L150.56141906208038,226.0213681326972L151.57894712074278,211.03675566779242L151.58591172073363,140.5764088630676L151.76002672050475,189.2026860449049L151.82270812042236,86.74660486645166L151.92021252029417,201.2426555421617L152.21272571990966,105.29378853903874L153.36954577838898,127.92004362742104L153.58544837810516,145.73940690358478L153.82224477779388,155.85146575503876L153.9824305775833,200.76571745342676L154.2470853772354,82.31651984320743L154.31673137714387,164.07347853978473L154.56815343681333,206.89810530344644L154.6238702367401,177.86988353729245L154.79798523651124,35.756997956169954L154.92334803634643,182.65921052296954L154.93727723632813,117.33521980709497L155.09746303611755,63.461798455980045L155.1044276361084,179.9556418524848L155.11139223609925,155.91832998063828L155.13228603607178,191.86367474661932L155.26461343589784,160.24149354298908L155.5083744355774,171.6136695543925L155.62677263542176,134.93001264995996L155.72427703529357,63.3099629084269L155.8705336351013,259.2167212168375L155.99589643493653,151.4148263401455L156.06554243484496,153.8160442246331L156.6791236940384,115.28635941611394L156.77662809391023,165.37303993437024L156.8184156938553,237.12422466278076L156.91592009372712,140.23605203628537L156.97860149364473,206.57057433658176L157.0273536935806,183.34015994601776L157.0343182935715,170.81556627485486L157.23629169330596,-329.99559730953644L157.30593769321442,200.90776856740314L157.4452296930313,109.36203813552855L157.91951895240783,107.91632323794892L158.26078435195922,68.36535575654767L158.2677489519501,108.65083948771156L158.4906161516571,139.05977450476752L158.7552709513092,12.076641082763643L159.5220734103012,128.74335066477454L159.5847548102188,97.5259856647915L159.69618841007232,20.503749741448274L159.71708221004488,121.36371866861977L159.77976360996246,150.22324736913043L159.9747724097061,69.54972018135916L160.21853340938566,192.35730531480576L160.30210860927582,206.10412798987494L160.57372800891875,153.32415835062662L160.74784300868987,247.71145333184137L160.86624120853423,80.06958950890433L161.3335658679199,46.50766203138562L161.48678706771852,111.0041490130954L161.68179586746217,72.0028545061747L162.0578842669678,127.28391398323905L162.36432666656495,198.30077107747394L162.97790792575836,144.31837707095673L162.9848725257492,149.27627923753525L163.5907927249527,103.16752502653331L163.64650952487943,37.527438163757296L163.95991652446747,97.82612021764118L164.79636498336794,110.9808785650465L164.8451171833038,183.86500639385645L165.04709058303834,133.56679349475434L165.3047807826996,94.02782668007742L165.71569218215942,130.36971214082504L166.04372484172822,163.65046093198987L166.322308841362,168.4283295207553L166.49642384113312,186.7392014397515L166.6287512409592,155.1954135894775L166.6635742409134,128.0288276672363L166.8237600407028,7.408971150716127L166.9769812405014,173.2768582238091L167.12323784030914,165.74741829766165L167.5905624996948,159.7272802988688L167.9596862992096,82.62889083226518L168.36363309867858,97.94933334986366L168.67007549827574,177.07753303315903L168.6979338982391,154.76133839289346L168.87204889801026,74.79504892561168L170.15423175632478,159.74284108479816L170.25870075618744,35.0541691250271L170.27959455615996,124.30692344241669L170.43281575595856,49.171998659769656L170.4746033559036,158.2228587998284L170.80890415546418,184.27885256873236L170.90710501533508,59.17173692915172L171.18568901496886,148.52947939766776L171.22747661491394,211.22657367918225L171.32498101478578,62.99101395077173L171.40159161468506,107.24855332904389L171.46427301460264,99.58441829681394L171.78464461418153,145.29498142666284L171.83339681411744,136.01049704021875L171.86125521408078,86.31359063254459L171.9030428140259,250.14655129114786L172.31395421348572,180.83921156989203L172.50199841323854,107.57106240590412L172.6559160730362,80.96372169918482L173.14343807239533,143.50822597079804L173.2966592721939,141.6824035114712L173.5264910718918,166.68278657065497L173.64488927173616,219.48213646146985L173.69364147167204,217.803834968143L173.97222547130585,56.84091981252031L174.06276527118683,204.4986556900872L174.09758827114106,155.24108213848535L174.13937587108612,96.23337946997746L174.1540015310669,176.4929897520277L174.6833111303711,102.72225077946979L174.69027573036195,171.72382105721366L174.70420493034362,92.21938043170502L174.9967181299591,149.1409003999498L175.01761192993163,162.75239139133026L175.23351452964783,122.29465447531804L175.42155872940063,228.04127603107025L175.44245252937318,141.34600761201645L175.4772755293274,103.03834692637123L175.86102498882292,138.6724052429199L175.9654939886856,82.13278468449907L176.02817538860322,187.07771926456024L176.04210458858492,99.24380212359955L176.31372398822785,146.57525687747528L176.3833699881363,107.2165358331468L176.48087438800812,208.41240554385715L176.78035218761443,251.389740202162L177.09375918720247,111.96554623709783L177.3793077868271,233.96955823898315L177.46357944671632,125.01779201295638L177.47054404670715,169.26224618487885L177.60983604652407,136.36841869354245L177.62376524650574,187.77635139889185L177.65858824645994,263.19813691245184L177.73519884635925,118.1766810946994L178.50130484535217,215.8639000786675L178.50826944534302,191.34434530470105L178.65452604515073,103.24478668636743L179.12185070453643,87.20784070756699L179.12881530452728,112.94358878665497L179.14970910449983,190.441442489624L179.15667370449066,90.12923680411441L179.42829310413362,127.43935680389401L179.4909745040512,41.74832492404511L179.6581249038315,110.79426701863605L179.88795670352934,133.43643654717337L180.06207170330046,191.40590471691553L180.3127973029709,126.97319338056775L180.57745210262297,147.26608504189383L180.849767962265,167.17589844597708L180.90548476219178,192.9438526365492L181.1283519618988,111.69523652394611L181.2188917617798,22.10368145836722L181.66462616119384,115.95108789867822L182.11732516059877,138.7787844340006L182.27751096038818,142.6346764564514L182.85626921962736,76.13117816713117L182.87716301959992,78.13484154807193L182.91198601955415,25.111439916822604L183.37861421894073,122.09724468655054L183.50397701877594,89.57911586761472L184.02005387809754,157.17571221457587L184.29167327774047,104.17633549372353L184.29863787773132,104.80081812540688L184.90455807693482,229.0748422940572L185.39208007629392,120.02197811338635L185.4826198761749,109.85163704554238L185.67832513591767,181.95121834013196L185.6852897359085,84.91528897815277L185.97083833553316,90.99087995953028L186.1379887353134,176.88045332166882L186.1797763352585,216.32754076851737L186.31906833507537,135.82027822070648L186.36085593502045,208.78793917761908L186.50711253482817,181.74338754018146L186.54890013477325,83.94865767161049L186.96677613422395,144.6318090226915L187.371419393692,139.8231489393446L187.59428659339906,31.487354066636783L187.64303879333497,182.35575162039862L188.22806519256594,119.24056731330022L189.12719505138398,195.7616516219245L189.30131005115507,108.7886939048767L189.39184985103606,104.14332776599457L189.57989405078888,102.62310971154105L189.62864625072478,153.6239392492506L189.7052568506241,154.01920678880478L189.7400798505783,120.34495872921411L189.79579665050508,139.92184204525415L189.8933010503769,149.87374268637762L190.08830985012057,183.06626653671262L190.56259910949706,106.31533055835297L190.5834929094696,132.27555476294623L190.8760061090851,202.43779463238184L191.11976710876465,173.2190475463867L191.3774573084259,181.55493699179755L192.01123590759278,166.44628620147702L192.1226695074463,-122.23482089572485L192.86161356647492,163.75759458541867L192.91036576641082,210.5964561568366L192.99394096630095,195.95156394110785L193.33520636585237,113.37570709652368L193.34913556583405,85.40653827455307L193.42574616573336,171.4051785998874L193.43271076572418,144.75804000430634L193.4675337656784,86.93154244952729L194.05325662490844,120.0916479958428L194.07415042488097,158.28809621598984L195.09794662353517,128.90855434205795L195.12580502349854,151.2672817971971L195.13276962348937,127.79362403021916L195.25116782333373,-8.33562066819934L195.35563682319642,105.0650685628255L195.42528282310485,119.91963058047821L195.49562528301237,146.21066294776068L195.5304482829666,96.50981918970741L195.56527128292086,155.29714812172782L195.59312968288424,74.05772701899208L195.6349172828293,151.7110942734612L195.80206768260953,119.41623915566336L195.87171368251802,112.19461986753673L196.05279328227996,51.07305516137015L196.06672248226164,110.93223932054305L196.36620028186798,98.32479625278046L196.52638608165742,96.32705068588254L196.8815806811905,86.2695724699232L197.04873108097075,21.26952902475989L197.17479034080506,-568.0931161244712L197.27229474067687,224.29725662867227L197.50212654037475,151.43703582551743L198.2891263393402,192.9617003864712L198.6303917388916,132.45275910695392L199.0489641983414,182.96698400709363L199.18825619815826,95.08937878078882L199.26486679805757,92.04314274258081L199.40415879787443,111.12733856836952L199.82203479732513,80.70894919501407L199.91257459720612,136.3606147236294L200.17026479686737,175.4579145643446L200.3095567966843,56.81833309597437L200.3798992565918,198.82519314024182L200.97885485580446,91.44666952557031L201.0485008557129,130.38772492938568L202.0242413144302,165.45624298519556L202.2819315140915,160.47919633653427L202.29586071407317,127.07174502478703L202.49783411380767,124.73102558983695L202.76945351345063,176.72062518861557L203.10375431301117,145.59686067369248L203.4380551125717,146.89052783118353L203.4519843125534,-937.1957128312852L203.50770111248016,123.89682600233289L203.71037097221372,72.08428928587169L203.87055677200317,190.75072489844428L205.03364497047426,188.97825707329642L205.3407838300705,84.98538324568004L205.36864223003388,185.059485329522L205.78651822948459,142.50087727440726L206.10688982906342,172.07716878255206L206.31582782878874,207.2368353207906L206.46904902858734,99.50937287012734L206.5247658285141,157.84312846925522L206.95726748794556,103.43219984902274L207.3681788874054,40.17380915747745L207.57711688713073,79.14386420779755L207.73033808692932,148.3346866501702L207.9601698866272,111.7513732380337L208.1621432863617,73.17260122299193L208.25964768623354,173.2118094232347L208.4755502859497,144.71364461051093L208.7409015456009,173.87757529152762L209.33985714481355,201.96559551027084L209.8482729441452,47.82113382551404L210.0223879439163,-4.315892431471099L210.1129277437973,163.3140650325351L210.16167994373322,173.22430520587494L210.16934100372313,66.90311341815521L210.7195444029999,221.32658471001517L211.91815206142425,188.13014708624945L212.02262106128694,140.96509843402436L212.38478026081086,169.77539846632214L212.57282446056365,120.79039801491629L213.00462965999606,75.44895558887055L213.17874465976715,177.19433323542276L213.7923259189606,227.53151883019342L214.0500161186218,99.70131280687117L214.2937771183014,162.2725297609965L214.4052107181549,141.84204302893744L214.52360891799927,163.398989200592L214.8091575176239,75.22497457928125L215.45756177677154,144.28322384092542L215.55506617664335,206.29238992267184L215.6664997764969,127.58925904168021L215.81275637630463,211.6182339456346L215.87543777622224,133.33279228210446L215.98687137607575,206.2372670173645L216.42564117549895,187.00140068266126L216.43260577548983,105.12698162926566L216.53011017536164,173.59476979573566L217.2899480343628,114.89102114571463L217.38048783424378,96.41124396853974L217.4570984341431,149.30551465352374L218.08391243331909,163.21386300192938L218.15355843322754,181.48493703206378L218.1953460331726,193.87542502085367L218.6139184926224,87.4171332783169L218.90643169223787,49.439078330993624L220.00057035079956,159.3134341239929L220.26522515045167,89.69353479809229L220.58559675003053,121.23362106747095L220.5995259500122,134.14233038160535L220.878109949646,234.3282815085517L220.88507454963684,156.59647374682953L220.8920391496277,132.0214895672268L221.00347274948118,155.40256065792505L221.0940125493622,176.74868175718518L221.10794174934387,140.6118214395311L221.79116900844576,104.08181550767684L222.75924840717315,150.2327488793267L222.83585900707243,128.50630802578394L223.27532526649475,89.12877257664996L223.3171128664398,150.27839385138617L223.35890046638488,76.87823735343082L223.3867588663483,-1721.5195863511829L223.3937234663391,-434.6725798712837L223.91606846565244,121.49129353629216L224.19465246528625,103.60690503650238L224.5777054647827,195.49016306135388L225.33057872379302,90.21442031860349L225.40718932369234,95.33717250823972L225.4629061236191,144.75419696172077L225.79720692317963,52.1649507946438L225.96435732295993,110.89314874013263L226.2429413225937,-528.8754088083904L226.2638351225662,30.341467221577943L226.4797377222824,186.75867599911157L226.5431155821991,40.364216592576724L226.591867782135,74.0421898100111L226.7172305819702,64.17297352684866L227.11421278144837,29.911423683166475L227.25350478126526,121.90622425079343L227.2743985812378,159.55226861106024L227.42065518104553,197.1484713024563L228.01961078025818,146.33734189139471L228.6471212394333,67.48433234956525L228.66105043941496,85.55019262101914L228.88391763912202,77.69746557871498L229.00928043895723,85.35669660568236L229.16946623874665,-5.067336930169034L230.9739940963745,118.01102945539685L231.15507369613647,229.65021414226953L231.4552479557419,103.36748112572562L231.83830095523834,62.93176507949828L232.2701061546707,103.48256021075775L232.3606459545517,188.42634428872L233.0013891537094,188.920257780287L233.19709441345216,80.6164332495795L233.4687138130951,216.79351557625662L233.9214128125,126.19272565841672L235.41253367053986,54.74785264333086L235.9627370698166,242.5681891971164L236.14381666957854,124.31399652693005L236.29703786937714,189.48935816023084L236.56238912902833,240.80369038052027L236.59721212898253,88.47328625784976L236.70864572883607,126.10084629058835L236.79222092872618,137.98445346620346L236.9036545285797,133.3365645938449L237.09169872833252,110.65455002254907L237.56529152770995,136.04418849945066L237.90655692726136,181.09452634387543L237.99709672714235,156.62740670310126L238.04654538707732,15.925059212578645L238.08136838703155,91.11581420898435L238.31120018672942,127.28575298521253L238.70818238620757,208.1602972348531L239.2096335855484,157.72797865337793L239.43946538524628,222.76965898937647L239.48821758518218,62.86457077662148L239.5508989850998,184.33032104704114L239.89286084465027,90.30698341793482L239.9137546446228,108.87003437678017L240.06001124443054,192.27134376102023L240.14358644432068,190.01458183924356L240.27591384414671,92.84857845306394L240.40824124397278,110.70627784729002L241.3491587027359,57.72736591762964L241.91329130199432,173.96396123038397L241.92025590198517,45.753482606675846L241.94811430194855,227.82318925857544L242.1570523016739,56.12974474165172L242.28937970149994,90.4305266274346L242.6097513010788,165.33392577701142L243.10493436042785,147.20634105470444L243.1397573603821,152.29775947994654L243.32083696014405,153.7973477045695L243.64120855972288,168.66183561748926L243.74567755958557,41.59823407067191L244.05908455917358,181.4329498608907L244.31677475883484,215.88919814427692L244.6099844184494,136.29497649934555L244.7492764182663,93.20560418234928L244.79106401821136,124.86758327484128L244.88160381809234,180.24834966659543L245.076612617836,121.01268148422238L245.35519661746977,108.86673360400727L245.37609041744233,203.28109492195975L245.6546744170761,160.66814200083414L246.03076281658173,102.49496899710759L246.1213026164627,127.86067687140569L246.28914947624207,112.30024459626937L246.33790167617798,136.606828795539L246.36576007614136,127.69988208346894L247.055255475235,77.72170268164737L247.0761492752075,110.32605240080089L247.2293704750061,67.29500945409136L247.35473327484132,127.17779413859047L247.57760047454835,117.28035624821979L248.00313753398893,85.40474642647635L248.10064193386077,234.33120505015054L248.21904013370514,16.230192078484407L248.226004733696,136.2498502201504L248.51851793331144,215.60396422280203L249.20801333240507,106.52603774600556L249.3960575321579,161.28477350870767L249.59176279190063,194.75477446450125L251.5216534493637,183.9802033636305L251.598264049263,155.55821567111542L252.4549098481369,174.6805354224311L252.859553107605,139.8763149579366L253.11724330726622,171.04181067148843L253.26349990707396,199.11193598641287L253.52119010673525,40.79845682779944L253.77191570640565,160.80665657255383L253.77888030639647,64.23502805497907L253.9529953061676,47.94396972656247L254.3785323656082,101.87496598561603L254.4203199655533,155.75442303551566L254.52478896541595,179.68611017862955L254.8730189649582,78.93657567765976L254.9844525648117,-1.4703433778551016L255.05409856472016,146.15773269865247L255.17249676456453,86.27919186486136L255.33268256435395,39.86848767598468L255.6530541639328,40.27457703484427L256.09948502334595,44.96973768870032L256.14823722328185,97.63531197441947L256.2039540232086,163.38979419072467L256.5382548227692,215.78901969061957L256.60093622268676,182.01555983225504L256.87255562232974,111.46394666035968L257.0118476221466,143.01127105289032L257.10238742202756,73.00336588753592L257.67418108127595,173.05287721421982L258.10598628070835,122.03766573799979L258.18956148059846,113.90765020582408L258.41939328029633,171.5088228649563L258.43332248027804,177.12407392925684L258.7119064799118,111.57459327909679L259.1646054793167,119.56536335415308L259.67371773864744,171.05480157004462L260.0010539382172,179.12523815366956L260.65572633735655,189.0095201068454L260.7462661372375,138.30903731452094L260.76715993721007,206.25648223029242L261.2205553966141,37.866238911946596L261.2414491965866,162.13811757829453L261.5409269961929,79.74123334884642L261.81254639583585,128.37802584966022L261.8821923957443,194.76503043704562L261.90308619571687,88.36935906940033L262.2722099952316,186.47148519092133L262.3627497951126,147.37343088785806" fill="none"></path></g></g></g></g></g></g><g transform="translate(51, 178)" clip-path="url(#clip_1)"><clipPath id="clip_1"><rect width="278" height="22"></rect></clipPath><g><g><line x1="0" y1="0" x2="0" y2="5" style="visibility: inherit;" fill="rgb(0, 0, 0)" stroke="rgb(204, 204, 204)" stroke-width="1px"></line><line x1="34.82299995422363" y1="0" x2="34.82299995422363" y2="5" style="visibility: inherit;" fill="rgb(0, 0, 0)" stroke="rgb(204, 204, 204)" stroke-width="1px"></line><line x1="69.64599990844727" y1="0" x2="69.64599990844727" y2="5" style="visibility: inherit;" fill="rgb(0, 0, 0)" stroke="rgb(204, 204, 204)" stroke-width="1px"></line><line x1="104.4689998626709" y1="0" x2="104.4689998626709" y2="5" style="visibility: inherit;" fill="rgb(0, 0, 0)" stroke="rgb(204, 204, 204)" stroke-width="1px"></line><line x1="139.29199981689453" y1="0" x2="139.29199981689453" y2="5" style="visibility: inherit;" fill="rgb(0, 0, 0)" stroke="rgb(204, 204, 204)" stroke-width="1px"></line><line x1="174.11499977111816" y1="0" x2="174.11499977111816" y2="5" style="visibility: inherit;" fill="rgb(0, 0, 0)" stroke="rgb(204, 204, 204)" stroke-width="1px"></line><line x1="208.9379997253418" y1="0" x2="208.9379997253418" y2="5" style="visibility: inherit;" fill="rgb(0, 0, 0)" stroke="rgb(204, 204, 204)" stroke-width="1px"></line><line x1="243.76099967956543" y1="0" x2="243.76099967956543" y2="5" style="visibility: inherit;" fill="rgb(0, 0, 0)" stroke="rgb(204, 204, 204)" stroke-width="1px"></line><line x1="278.58399963378906" y1="0" x2="278.58399963378906" y2="5" style="visibility: inherit;" fill="rgb(0, 0, 0)" stroke="rgb(204, 204, 204)" stroke-width="1px"></line></g><g transform="translate(0, 8)"><text style="text-anchor: middle; visibility: hidden; font-family: &quot;Helvetica Neue&quot;, sans-serif; font-size: 12px; font-weight: 200;" x="0" y="0" dx="0em" dy="0.95em" fill="rgb(50, 49, 63)" stroke="none" stroke-width="1px">-50k</text><text style="text-anchor: middle; visibility: inherit; font-family: &quot;Helvetica Neue&quot;, sans-serif; font-size: 12px; font-weight: 200;" x="34.82299995422363" y="0" dx="0em" dy="0.95em" fill="rgb(50, 49, 63)" stroke="none" stroke-width="1px">0</text><text style="text-anchor: middle; visibility: hidden; font-family: &quot;Helvetica Neue&quot;, sans-serif; font-size: 12px; font-weight: 200;" x="69.64599990844727" y="0" dx="0em" dy="0.95em" fill="rgb(50, 49, 63)" stroke="none" stroke-width="1px">50k</text><text style="text-anchor: middle; visibility: inherit; font-family: &quot;Helvetica Neue&quot;, sans-serif; font-size: 12px; font-weight: 200;" x="104.4689998626709" y="0" dx="0em" dy="0.95em" fill="rgb(50, 49, 63)" stroke="none" stroke-width="1px">100k</text><text style="text-anchor: middle; visibility: hidden; font-family: &quot;Helvetica Neue&quot;, sans-serif; font-size: 12px; font-weight: 200;" x="139.29199981689453" y="0" dx="0em" dy="0.95em" fill="rgb(50, 49, 63)" stroke="none" stroke-width="1px">150k</text><text style="text-anchor: middle; visibility: inherit; font-family: &quot;Helvetica Neue&quot;, sans-serif; font-size: 12px; font-weight: 200;" x="174.11499977111816" y="0" dx="0em" dy="0.95em" fill="rgb(50, 49, 63)" stroke="none" stroke-width="1px">200k</text><text style="text-anchor: middle; visibility: hidden; font-family: &quot;Helvetica Neue&quot;, sans-serif; font-size: 12px; font-weight: 200;" x="208.9379997253418" y="0" dx="0em" dy="0.95em" fill="rgb(50, 49, 63)" stroke="none" stroke-width="1px">250k</text><text style="text-anchor: middle; visibility: inherit; font-family: &quot;Helvetica Neue&quot;, sans-serif; font-size: 12px; font-weight: 200;" x="243.76099967956543" y="0" dx="0em" dy="0.95em" fill="rgb(50, 49, 63)" stroke="none" stroke-width="1px">300k</text><text style="text-anchor: middle; visibility: hidden; font-family: &quot;Helvetica Neue&quot;, sans-serif; font-size: 12px; font-weight: 200;" x="278.58399963378906" y="0" dx="0em" dy="0.95em" fill="rgb(50, 49, 63)" stroke="none" stroke-width="1px">350k</text></g><line x1="0" y1="0" x2="278.58399963378906" y2="0" fill="rgb(0, 0, 0)" stroke="rgb(204, 204, 204)" stroke-width="1px"></line></g></g></g></g></svg>